<svg width="256" height="198" viewBox="0 0 256 198" fill="none" xmlns="http://www.w3.org/2000/svg">
<ellipse cx="128" cy="185.468" rx="12.549" ry="12.5316" fill="white"/>
<path d="M70.2745 172.937C45.3242 172.937 25.098 152.738 25.098 127.823C25.098 102.907 45.3242 82.7088 70.2745 82.7088C95.2248 82.7088 115.451 102.907 115.451 127.823C115.451 134.744 121.069 140.354 128 140.354C134.931 140.354 140.549 134.744 140.549 127.823C140.549 89.0649 109.086 57.6455 70.2745 57.6455C31.463 57.6455 0 89.0649 0 127.823C0 166.581 31.463 198 70.2745 198C77.2051 198 82.8235 192.389 82.8235 185.468C82.8235 178.547 77.2051 172.937 70.2745 172.937Z" fill="url(#paint0_linear_2058_5130)"/>
<path d="M139.167 113.902C158.716 108.939 173.177 91.2443 173.177 70.1772C173.177 45.2615 152.95 25.0633 128 25.0633C106.904 25.0633 89.1849 39.5035 84.2143 59.0261C79.7088 58.1206 75.0473 57.6455 70.2747 57.6455C66.3245 57.6455 62.4505 57.971 58.678 58.5965C64.2062 25.3492 93.1388 0 128 0C166.812 0 198.275 31.4194 198.275 70.1772C198.275 108.935 166.812 140.354 128 140.354C134.931 140.354 140.549 134.744 140.549 127.823C140.549 123.057 140.073 118.402 139.167 113.902Z" fill="url(#paint1_linear_2058_5130)"/>
<path d="M196.892 84.0977C216.442 89.0614 230.902 106.756 230.902 127.823C230.902 152.739 210.676 172.937 185.726 172.937C178.795 172.937 173.177 178.547 173.177 185.468C173.177 192.389 178.795 198 185.726 198C224.537 198 256 166.581 256 127.823C256 93.0098 230.616 64.1173 197.322 58.5967C197.949 62.3639 198.275 66.2326 198.275 70.1773C198.275 74.9433 197.799 79.5984 196.892 84.0977Z" fill="url(#paint2_linear_2058_5130)"/>
<ellipse cx="128" cy="127.823" rx="12.549" ry="12.5316" fill="white"/>
<defs>
<linearGradient id="paint0_linear_2058_5130" x1="6.52549" y1="165.167" x2="122.369" y2="82.0555" gradientUnits="userSpaceOnUse">
<stop stop-color="white"/>
<stop offset="1" stop-color="white" stop-opacity="0.5"/>
</linearGradient>
<linearGradient id="paint1_linear_2058_5130" x1="139.043" y1="109.527" x2="120.046" y2="-0.013344" gradientUnits="userSpaceOnUse">
<stop stop-color="white" stop-opacity="0.5"/>
<stop offset="1" stop-color="white"/>
</linearGradient>
<linearGradient id="paint2_linear_2058_5130" x1="188.737" y1="68.1721" x2="248.687" y2="189.237" gradientUnits="userSpaceOnUse">
<stop stop-color="white" stop-opacity="0.5"/>
<stop offset="1" stop-color="white"/>
</linearGradient>
</defs>
</svg>
