<svg width="600" height="600" viewBox="0 0 600 600" fill="none" xmlns="http://www.w3.org/2000/svg">
<ellipse cx="300" cy="448.278" rx="22.7451" ry="22.7215" fill="#8B33FF"/>
<path d="M195.373 425.557C150.15 425.557 113.49 388.935 113.49 343.76C113.49 298.584 150.15 261.962 195.373 261.962C240.595 261.962 277.255 298.584 277.255 343.76C277.255 356.308 287.438 366.481 300 366.481C312.562 366.481 322.745 356.308 322.745 343.76C322.745 273.487 265.718 216.519 195.373 216.519C125.027 216.519 68 273.487 68 343.76C68 414.033 125.027 471 195.373 471C207.934 471 218.118 460.827 218.118 448.278C218.118 435.73 207.934 425.557 195.373 425.557Z" fill="url(#paint0_linear_2058_5142)"/>
<path d="M320.239 318.52C355.673 309.52 381.882 277.438 381.882 239.241C381.882 194.065 345.222 157.443 300 157.443C261.763 157.443 229.647 183.625 220.638 219.022C212.472 217.38 204.023 216.519 195.373 216.519C188.213 216.519 181.191 217.109 174.354 218.243C184.374 157.962 236.814 112 300 112C370.346 112 427.373 168.968 427.373 239.241C427.373 309.514 370.346 366.481 300 366.481C312.562 366.481 322.745 356.308 322.745 343.76C322.745 335.118 321.883 326.678 320.239 318.52Z" fill="url(#paint1_linear_2058_5142)"/>
<path d="M424.867 264.48C460.301 273.48 486.51 305.562 486.51 343.76C486.51 388.935 449.85 425.557 404.627 425.557C392.066 425.557 381.882 435.73 381.882 448.279C381.882 460.827 392.066 471 404.627 471C474.973 471 532 414.033 532 343.76C532 280.639 485.991 228.253 425.647 218.243C426.782 225.074 427.373 232.088 427.373 239.241C427.373 247.882 426.51 256.322 424.867 264.48Z" fill="url(#paint2_linear_2058_5142)"/>
<ellipse cx="300" cy="343.759" rx="22.7451" ry="22.7215" fill="#8B33FF"/>
<defs>
<linearGradient id="paint0_linear_2058_5142" x1="95.5657" y1="429.22" x2="296.9" y2="253.82" gradientUnits="userSpaceOnUse">
<stop stop-color="#8B33FF"/>
<stop offset="1" stop-color="#AA99FF"/>
</linearGradient>
<linearGradient id="paint1_linear_2058_5142" x1="460.58" y1="159.261" x2="174.504" y2="268.02" gradientUnits="userSpaceOnUse">
<stop stop-color="#00E0D9"/>
<stop offset="1" stop-color="#0059F5"/>
</linearGradient>
<linearGradient id="paint2_linear_2058_5142" x1="469.223" y1="229.697" x2="307.317" y2="451.453" gradientUnits="userSpaceOnUse">
<stop stop-color="#009FF5"/>
<stop offset="1" stop-color="#8B33FF"/>
</linearGradient>
</defs>
</svg>
