<svg width="256" height="198" viewBox="0 0 256 198" fill="none" xmlns="http://www.w3.org/2000/svg">
<ellipse cx="128" cy="185.468" rx="12.549" ry="12.5316" fill="#8B33FF"/>
<path d="M70.2745 172.937C45.3242 172.937 25.098 152.739 25.098 127.823C25.098 102.907 45.3242 82.7089 70.2745 82.7089C95.2248 82.7089 115.451 102.907 115.451 127.823C115.451 134.744 121.069 140.354 128 140.354C134.931 140.354 140.549 134.744 140.549 127.823C140.549 89.065 109.086 57.6456 70.2745 57.6456C31.463 57.6456 0 89.065 0 127.823C0 166.581 31.463 198 70.2745 198C77.2051 198 82.8235 192.389 82.8235 185.468C82.8235 178.547 77.2051 172.937 70.2745 172.937Z" fill="url(#paint0_linear_2058_5124)"/>
<path d="M139.167 113.902C158.716 108.939 173.177 91.2443 173.177 70.1772C173.177 45.2615 152.95 25.0633 128 25.0633C106.904 25.0633 89.1848 39.5036 84.2142 59.0261C79.7087 58.1207 75.0472 57.6456 70.2745 57.6456C66.3244 57.6456 62.4503 57.971 58.6779 58.5966C64.2061 25.3493 93.1387 0 128 0C166.812 0 198.275 31.4194 198.275 70.1772C198.275 108.935 166.812 140.354 128 140.354C134.931 140.354 140.549 134.744 140.549 127.823C140.549 123.057 140.073 118.402 139.167 113.902Z" fill="url(#paint1_linear_2058_5124)"/>
<path d="M196.892 84.0976C216.442 89.0613 230.902 106.756 230.902 127.823C230.902 152.739 210.676 172.937 185.726 172.937C178.795 172.937 173.177 178.547 173.177 185.468C173.177 192.389 178.795 198 185.726 198C224.537 198 256 166.581 256 127.823C256 93.0097 230.616 64.1173 197.322 58.5966C197.949 62.3639 198.275 66.2325 198.275 70.1772C198.275 74.9432 197.799 79.5983 196.892 84.0976Z" fill="url(#paint2_linear_2058_5124)"/>
<ellipse cx="128" cy="127.823" rx="12.549" ry="12.5316" fill="#8B33FF"/>
<defs>
<linearGradient id="paint0_linear_2058_5124" x1="15.2087" y1="174.957" x2="126.256" y2="78.1798" gradientUnits="userSpaceOnUse">
<stop stop-color="#8B33FF"/>
<stop offset="1" stop-color="#AA99FF"/>
</linearGradient>
<linearGradient id="paint1_linear_2058_5124" x1="216.596" y1="26.0658" x2="58.7747" y2="86.0865" gradientUnits="userSpaceOnUse">
<stop stop-color="#00E0D9"/>
<stop offset="1" stop-color="#0059F5"/>
</linearGradient>
<linearGradient id="paint2_linear_2058_5124" x1="221.365" y1="64.9138" x2="132.078" y2="187.249" gradientUnits="userSpaceOnUse">
<stop stop-color="#009FF5"/>
<stop offset="1" stop-color="#8B33FF"/>
</linearGradient>
</defs>
</svg>
