<svg width="3200" height="541" viewBox="0 0 3200 541" fill="none" xmlns="http://www.w3.org/2000/svg">
<ellipse cx="351.57" cy="505.84" rx="34.4676" ry="34.1784" fill="#8B33FF"/>
<path d="M193.019 471.661C124.489 471.661 68.9352 416.574 68.9352 348.619C68.9352 280.665 124.489 225.577 193.019 225.577C261.548 225.577 317.102 280.665 317.102 348.619C317.102 367.496 332.534 382.798 351.57 382.798C370.605 382.798 386.037 367.496 386.037 348.619C386.037 242.913 299.62 157.22 193.019 157.22C86.4174 157.22 0 242.913 0 348.619C0 454.326 86.4174 540.018 193.019 540.018C212.054 540.018 227.486 524.716 227.486 505.84C227.486 486.964 212.054 471.661 193.019 471.661Z" fill="url(#paint0_linear_1801_2185)"/>
<path d="M382.24 310.653C435.936 297.116 475.653 248.857 475.653 191.399C475.653 123.445 420.099 68.3567 351.569 68.3567C293.625 68.3567 244.958 107.741 231.306 160.986C218.93 158.516 206.127 157.22 193.018 157.22C182.169 157.22 171.528 158.108 161.167 159.814C176.351 69.1367 255.818 0 351.569 0C458.171 0 544.588 85.6922 544.588 191.399C544.588 297.106 458.171 382.798 351.569 382.798C370.605 382.798 386.037 367.496 386.037 348.619C386.037 335.621 384.73 322.925 382.24 310.653Z" fill="url(#paint1_linear_1801_2185)"/>
<path d="M540.791 229.365C594.487 242.903 634.204 291.162 634.204 348.619C634.204 416.574 578.65 471.662 510.12 471.662C491.084 471.662 475.653 486.964 475.653 505.84C475.653 524.716 491.084 540.018 510.12 540.018C616.722 540.018 703.139 454.326 703.139 348.619C703.139 253.671 633.417 174.871 541.973 159.814C543.693 170.089 544.588 180.64 544.588 191.399C544.588 204.398 543.282 217.094 540.791 229.365Z" fill="url(#paint2_linear_1801_2185)"/>
<ellipse cx="351.57" cy="348.619" rx="34.4676" ry="34.1784" fill="#8B33FF"/>
<path d="M3175.97 479.019C3162.69 479.019 3151.94 468.409 3151.94 455.307C3151.94 443.64 3160.49 433.955 3171.76 431.992C3169.02 432.181 3166.77 432.54 3163.49 432.54C3156.49 432.54 3150.96 431.803 3146.93 430.35C3142.85 428.537 3139.73 425.989 3137.51 422.723C3135.68 419.457 3134.39 415.455 3133.65 410.735C3133.28 406.015 3133.09 400.371 3133.09 393.839V249.248H3187.07C3192.17 249.248 3196.31 245.17 3196.31 240.129V207.3C3196.31 202.259 3192.17 198.181 3187.07 198.181H3133.09V167.334C3133.09 160.556 3125.86 156.158 3119.74 159.178L3075.21 181.077C3072.1 182.625 3070.09 185.778 3070.09 189.233V409.64C3070.45 421.269 3071.56 431.633 3073.42 440.714C3075.62 449.795 3079.5 457.44 3085.03 463.614C3090.92 469.428 3098.84 473.978 3108.77 477.244C3119.11 480.151 3132.54 481.605 3149.13 481.605C3156.13 481.605 3162.96 481.246 3169.56 480.51C3173.71 480.057 3177.37 479.585 3180.24 478.603C3178.86 478.849 3177.44 479 3175.97 479V479.019Z" fill="#1D1843"/>
<path d="M3175.97 479.019C3162.69 479.019 3151.94 468.409 3151.94 455.307C3151.94 443.64 3160.49 433.955 3171.76 431.992C3169.02 432.181 3166.77 432.54 3163.49 432.54C3156.49 432.54 3150.96 431.803 3146.93 430.35C3142.85 428.537 3139.73 425.989 3137.51 422.723C3135.68 419.457 3134.39 415.454 3133.65 410.735C3133.28 406.015 3133.09 400.371 3133.09 393.839V389.232H3070.09V409.64C3070.45 421.269 3071.56 431.633 3073.42 440.714C3075.62 449.795 3079.5 457.44 3085.03 463.614C3090.92 469.428 3098.84 473.978 3108.77 477.244C3119.11 480.151 3132.54 481.605 3149.13 481.605C3156.13 481.605 3162.96 481.246 3169.56 480.51C3173.71 480.057 3177.37 479.585 3180.24 478.603C3178.86 478.849 3177.44 479 3175.97 479V479.019Z" fill="url(#paint3_linear_1801_2185)"/>
<path d="M3200 455.326C3200 468.428 3189.25 479.037 3175.97 479.037C3162.69 479.037 3151.94 468.428 3151.94 455.326C3151.94 442.224 3162.69 431.615 3175.97 431.615C3189.25 431.615 3200 442.224 3200 455.326Z" fill="#8041F4"/>
<path fill-rule="evenodd" clip-rule="evenodd" d="M2242.16 197.766C2242.68 186.646 2244.76 180.133 2250.52 173.734C2257.43 165.729 2267.63 161.727 2281.1 161.727C2287.66 161.727 2292.21 162.822 2298.43 165.012C2305.57 167.107 2313.66 165.823 2315.75 158.763L2324.66 128.67C2326.14 123.705 2324.55 118.136 2319.96 115.663C2315.86 113.454 2311.46 112.02 2304.88 110.415C2294.85 107.866 2287.85 106.601 2276.45 106.601C2244.67 106.601 2220.14 115.399 2202.86 133.956C2187.06 150.947 2181.8 170.411 2181.17 197.785H2147.84C2141.71 197.785 2136.74 202.674 2136.74 208.734V237.921C2136.74 243.962 2141.69 248.87 2147.84 248.87H2181.11V464.048C2181.11 470.089 2186.06 474.997 2192.21 474.997H2232.86C2238.99 474.997 2243.96 470.108 2243.96 464.048V248.813" fill="#1D1843"/>
<path d="M2296.23 197.766C2296.04 197.766 2295.87 197.785 2295.68 197.785H2242.16L2243.92 248.814H2295.68C2295.87 248.795 2296.04 248.814 2296.23 248.814C2310.52 248.814 2322.1 237.392 2322.1 223.29C2322.1 209.187 2310.52 197.766 2296.23 197.766V197.766Z" fill="url(#paint4_linear_1801_2185)"/>
<path d="M2322.16 223.29C2322.16 237.392 2310.58 248.814 2296.29 248.814C2282 248.814 2270.42 237.392 2270.42 223.29C2270.42 209.187 2282 197.766 2296.29 197.766C2310.58 197.766 2322.16 209.187 2322.16 223.29V223.29Z" fill="#8041F4"/>
<path fill-rule="evenodd" clip-rule="evenodd" d="M2685.67 236.788V206.884C2685.67 201.787 2681.59 197.766 2676.42 197.766H2632.07C2626.91 197.766 2622.83 201.787 2622.83 206.884V465.822C2622.83 470.92 2626.91 474.941 2632.07 474.941H2676.42C2681.59 474.941 2685.67 470.92 2685.67 465.822V236.788Z" fill="#1D1843"/>
<path d="M2793.79 221.477C2793.79 238.619 2780.49 252.476 2764.21 252.476C2747.92 252.476 2734.63 238.619 2734.63 221.477C2734.63 204.336 2747.92 190.479 2764.21 190.479C2780.49 190.479 2793.79 204.336 2793.79 221.477Z" fill="#8041F4"/>
<path fill-rule="evenodd" clip-rule="evenodd" d="M2048.06 119.344C2048.06 116.248 2050.47 113.87 2053.61 113.87H2086.88C2090.02 113.87 2092.43 116.248 2092.43 119.344V469.466C2092.43 472.562 2090.02 474.941 2086.88 474.941H2053.61C2050.47 474.941 2048.06 472.562 2048.06 469.466V437.92C2028.83 464.728 2001.49 480.416 1958.78 480.416C1878.94 480.416 1831.82 414.775 1831.82 334.9C1831.82 255.025 1881.52 190.479 1958.78 190.479C1993.53 190.479 2024.95 205.978 2048.06 231.332V119.344ZM2051.75 335.447C2051.75 391.063 2020.14 436.108 1967.11 436.108C1914.07 436.108 1882.46 391.063 1882.46 335.447C1882.46 279.831 1914.99 234.787 1967.11 234.787C2019.22 234.787 2051.75 279.831 2051.75 335.447V335.447Z" fill="#1D1843"/>
<path fill-rule="evenodd" clip-rule="evenodd" d="M1401.19 480.416C1476.78 480.416 1537.95 422.251 1537.95 335.447C1537.95 248.644 1476.78 190.479 1401.19 190.479C1325.59 190.479 1264.43 247.926 1264.43 335.447C1264.43 422.968 1325.59 480.416 1401.19 480.416ZM1401.19 439.751C1449.23 439.751 1488.05 398.898 1488.05 335.447C1488.05 271.996 1449.23 231.143 1401.19 231.143C1353.15 231.143 1314.32 269.976 1314.32 335.447C1314.32 400.918 1353.15 439.751 1401.19 439.751Z" fill="#1D1843"/>
<path d="M1188.66 119.344C1188.66 116.248 1191.07 113.87 1194.21 113.87H1229.32C1232.45 113.87 1234.87 116.248 1234.87 119.344V469.466C1234.87 472.562 1232.45 474.941 1229.32 474.941H1194.21C1191.07 474.941 1188.66 472.562 1188.66 469.466V119.344Z" fill="#1D1843"/>
<path d="M904.036 334.9C904.036 305.902 909.585 280.548 920.663 259.046C931.76 237.165 947.085 220.212 966.678 208.357C986.825 196.501 1009.55 190.479 1035.06 190.479C1068.14 190.479 1095.31 198.861 1116.57 215.644C1135.97 230.596 1149.46 251.022 1156.86 276.376C1158.16 280.926 1154.64 285.306 1149.84 285.306H1116.76C1113.43 285.306 1110.48 283.116 1109.37 279.831C1104.38 265.238 1096.07 253.571 1084.06 244.811C1070.93 234.957 1054.67 230.048 1035.08 230.048C1009.57 230.048 989.063 239.355 973.355 257.762C957.647 275.81 949.879 301.711 949.879 335.088C949.879 368.466 957.647 395.085 973.355 413.51C989.063 431.935 1009.57 441.224 1035.08 441.224C1054.67 441.224 1071.12 436.485 1084.06 426.819C1095.88 418.249 1104.21 406.393 1109.37 391.252C1110.48 388.156 1113.26 385.966 1116.58 385.966H1149.47C1154.28 385.966 1157.8 390.346 1156.31 394.896C1148.54 419.513 1135.05 439.581 1115.65 455.081C1094.03 472.222 1067.05 480.604 1034.7 480.604C1009.19 480.604 986.461 474.582 966.505 462.726C947.277 450.512 931.76 433.54 920.663 411.849C909.585 389.968 904.036 364.256 904.036 334.9Z" fill="#1D1843"/>
<path fill-rule="evenodd" clip-rule="evenodd" d="M2524.87 335.07C2524.87 386.306 2495.12 420.589 2450.02 420.589C2404.93 420.589 2375.18 386.495 2375.18 335.07C2375.18 283.644 2404.93 249.55 2450.02 249.55C2433.57 249.55 2420.08 236.24 2420.08 220.005C2420.08 203.769 2433.57 190.46 2450.02 190.46C2369.26 190.46 2310.49 251.74 2310.49 335.428C2310.49 419.117 2369.26 480.397 2450.02 480.397C2530.78 480.397 2589.56 419.117 2589.56 335.428L2524.87 335.07V335.07Z" fill="#1D1843"/>
<path fill-rule="evenodd" clip-rule="evenodd" d="M2589.56 335.447C2589.56 251.74 2530.78 190.479 2450.02 190.479C2466.48 190.479 2479.97 203.788 2479.97 220.024C2479.97 236.259 2466.67 249.569 2450.02 249.569C2495.12 249.569 2524.87 283.852 2524.87 335.088L2589.56 335.447V335.447Z" fill="url(#paint5_linear_1801_2185)"/>
<path fill-rule="evenodd" clip-rule="evenodd" d="M2450.02 249.55C2433.57 249.55 2420.08 236.24 2420.08 220.005C2420.08 203.769 2433.57 190.46 2450.02 190.46" fill="#1D1843"/>
<path d="M2479.97 220.005C2479.97 236.24 2466.48 249.55 2450.02 249.55C2433.57 249.55 2420.08 236.24 2420.08 220.005C2420.08 203.769 2433.57 190.46 2450.02 190.46C2466.48 190.46 2479.97 203.769 2479.97 220.005V220.005Z" fill="#8041F4"/>
<path fill-rule="evenodd" clip-rule="evenodd" d="M2734.82 221.477C2734.82 204.694 2747.58 191.026 2763.65 190.479H2761.24C2752.75 190.479 2744.61 191.763 2736.66 194.122C2728.71 196.671 2721.31 200.145 2714.48 204.883C2707.65 209.263 2701.35 214.738 2696 221.289C2691.92 226.027 2688.42 231.313 2685.65 236.788V331.426C2685.65 320.476 2686.76 310.452 2688.98 301.164C2691.2 291.875 2694.7 283.663 2699.88 276.905C2705.24 269.788 2712.09 264.143 2720.58 260.122C2729.08 256.101 2737.59 252.287 2751.64 252.287C2754.77 252.287 2757.91 252.476 2761.24 252.476C2762.16 252.476 2763.1 252.476 2764.02 252.665C2747.75 252.306 2734.82 238.449 2734.82 221.477V221.477Z" fill="url(#paint6_linear_1801_2185)"/>
<path fill-rule="evenodd" clip-rule="evenodd" d="M1567.53 206.884C1567.53 201.787 1571.61 197.766 1576.77 197.766H1602.64C1607.81 197.766 1611.88 201.787 1611.88 206.884V382.851C1611.88 406.015 1617.99 416.229 1628.34 426.612C1638.69 436.825 1654.76 440.11 1672.88 440.11C1687.28 440.11 1699.68 437.92 1710.03 433.54C1720.75 429.16 1729.63 422.968 1736.65 414.756C1743.67 406.733 1748.85 397.256 1752.16 386.665C1755.3 376.999 1757.16 366.786 1757.71 355.855V206.884C1757.71 201.787 1761.79 197.766 1766.95 197.766H1792.82C1797.99 197.766 1802.06 201.787 1802.06 206.884V465.822C1802.06 470.92 1797.99 474.941 1792.82 474.941H1766.95C1761.79 474.941 1757.71 470.92 1757.71 465.822V432.823C1747.92 448.87 1735.73 460.914 1721.11 468.937C1705.6 476.961 1687.28 480.982 1666.22 480.982C1647.37 480.982 1631.67 478.603 1619.09 473.865C1606.52 468.768 1596.36 461.65 1588.6 452.343C1580.83 443.225 1575.3 432.275 1571.97 419.891C1569 407.129 1567.53 398.369 1567.53 384.871V206.884Z" fill="#1D1843"/>
<path d="M2913.98 190.46C2846.59 190.46 2791.17 238.997 2784.62 317.796C2783.84 324.479 2783.42 331.615 2783.42 339.053C2783.42 343.263 2783.55 347.397 2783.82 351.4H2847.91C2847.91 351.192 2847.91 350.965 2847.91 350.758H3024.61C3034.31 350.758 3042.17 342.999 3042.17 333.427V315.587C3038.52 238.336 2994.86 190.46 2913.98 190.46V190.46ZM2849.31 302.127C2856.16 266.88 2882.93 242.697 2914.88 242.697C2946.83 242.697 2977.6 261.538 2980.98 302.127H2849.31Z" fill="#1D1843"/>
<path d="M2783.84 351.4C2784.09 355.251 2784.45 359.008 2784.93 362.595C2792.73 430.35 2848.56 480.416 2916.03 480.416C2963.9 480.416 2998.28 464.161 3018.64 433.37C3022.69 428.915 3025.16 423.044 3025.16 416.587C3025.16 402.693 3013.74 391.422 2999.66 391.422C2992.85 391.422 2986.69 394.065 2982.11 398.351L2981.86 398.596C2981.77 398.69 2981.65 398.804 2981.54 398.898L2974.77 405.336C2961.37 419.419 2942.45 428.179 2921.5 428.179C2878.97 426.385 2855.2 402.315 2847.84 354.345C2847.84 353.344 2847.88 352.362 2847.91 351.381H2783.82L2783.84 351.4Z" fill="url(#paint7_linear_1801_2185)"/>
<path d="M3025.18 416.587C3025.18 430.482 3013.76 441.752 2999.68 441.752C2985.6 441.752 2974.17 430.482 2974.17 416.587C2974.17 402.693 2985.6 391.422 2999.68 391.422C3013.76 391.422 3025.18 402.693 3025.18 416.587Z" fill="#8041F4"/>
<defs>
<linearGradient id="paint0_linear_1801_2185" x1="41.7727" y1="477.171" x2="344.925" y2="211.11" gradientUnits="userSpaceOnUse">
<stop stop-color="#8B33FF"/>
<stop offset="1" stop-color="#AA99FF"/>
</linearGradient>
<linearGradient id="paint1_linear_1801_2185" x1="594.91" y1="71.091" x2="162.208" y2="236.814" gradientUnits="userSpaceOnUse">
<stop stop-color="#00E0D9"/>
<stop offset="1" stop-color="#0059F5"/>
</linearGradient>
<linearGradient id="paint2_linear_1801_2185" x1="608.008" y1="177.044" x2="365.018" y2="512.325" gradientUnits="userSpaceOnUse">
<stop stop-color="#009FF5"/>
<stop offset="1" stop-color="#8B33FF"/>
</linearGradient>
<linearGradient id="paint3_linear_1801_2185" x1="3168.39" y1="494.839" x2="3087.81" y2="397.514" gradientUnits="userSpaceOnUse">
<stop offset="0.22" stop-color="#752DDA"/>
<stop offset="0.65" stop-color="#1D1843"/>
</linearGradient>
<linearGradient id="paint4_linear_1801_2185" x1="2242.16" y1="223.29" x2="2322.1" y2="223.29" gradientUnits="userSpaceOnUse">
<stop stop-color="#1D1843"/>
<stop offset="0.05" stop-color="#21194A"/>
<stop offset="0.13" stop-color="#2C1B5E"/>
<stop offset="0.22" stop-color="#3F207E"/>
<stop offset="0.32" stop-color="#5A26AB"/>
<stop offset="0.41" stop-color="#752DDA"/>
</linearGradient>
<linearGradient id="paint5_linear_1801_2185" x1="2432.38" y1="238.317" x2="2602.28" y2="300.984" gradientUnits="userSpaceOnUse">
<stop offset="0.24" stop-color="#752DDA"/>
<stop offset="0.25" stop-color="#712CD3"/>
<stop offset="0.38" stop-color="#5324A0"/>
<stop offset="0.49" stop-color="#3B1F77"/>
<stop offset="0.6" stop-color="#2A1B5A"/>
<stop offset="0.69" stop-color="#201849"/>
<stop offset="0.75" stop-color="#1D1843"/>
</linearGradient>
<linearGradient id="paint6_linear_1801_2185" x1="2666.28" y1="278.868" x2="2780.7" y2="236.653" gradientUnits="userSpaceOnUse">
<stop offset="0.27" stop-color="#1D1843"/>
<stop offset="0.33" stop-color="#21194A"/>
<stop offset="0.41" stop-color="#2C1B5E"/>
<stop offset="0.51" stop-color="#3F207E"/>
<stop offset="0.62" stop-color="#5A26AB"/>
<stop offset="0.72" stop-color="#752DDA"/>
</linearGradient>
<linearGradient id="paint7_linear_1801_2185" x1="2804.41" y1="433.521" x2="3011.69" y2="369.292" gradientUnits="userSpaceOnUse">
<stop offset="0.41" stop-color="#1D1843"/>
<stop offset="0.47" stop-color="#261A53"/>
<stop offset="0.58" stop-color="#3F207E"/>
<stop offset="0.74" stop-color="#6829C4"/>
<stop offset="0.78" stop-color="#752DDA"/>
</linearGradient>
</defs>
</svg>
