<svg width="160" height="27" viewBox="0 0 160 27" fill="none" xmlns="http://www.w3.org/2000/svg">
<ellipse cx="17.5784" cy="25.2911" rx="1.72338" ry="1.70886" fill="#8B33FF"/>
<path d="M9.65093 23.5822C6.22446 23.5822 3.44676 20.8279 3.44676 17.4303C3.44676 14.0327 6.22446 11.2784 9.65093 11.2784C13.0774 11.2784 15.8551 14.0327 15.8551 17.4303C15.8551 18.3741 16.6267 19.1392 17.5785 19.1392C18.5303 19.1392 19.3019 18.3741 19.3019 17.4303C19.3019 12.1452 14.981 7.86072 9.65093 7.86072C4.32087 7.86072 0 12.1452 0 17.4303C0 22.7155 4.32087 27 9.65093 27C10.6027 27 11.3743 26.2349 11.3743 25.2911C11.3743 24.3473 10.6027 23.5822 9.65093 23.5822Z" fill="url(#paint0_linear_1801_2185)"/>
<path d="M19.112 15.5322C21.7968 14.8553 23.7827 12.4424 23.7827 9.56962C23.7827 6.17202 21.005 3.41772 17.5785 3.41772C14.6813 3.41772 12.2479 5.38685 11.5653 8.04901C10.9465 7.92555 10.3064 7.86076 9.65094 7.86076C9.10846 7.86076 8.57643 7.90514 8.05835 7.99044C8.81756 3.45672 12.7909 0 17.5785 0C22.9086 0 27.2294 4.28446 27.2294 9.56962C27.2294 14.8548 22.9086 19.1392 17.5785 19.1392C18.5303 19.1392 19.3019 18.3742 19.3019 17.4304C19.3019 16.7805 19.2365 16.1457 19.112 15.5322Z" fill="url(#paint1_linear_1801_2185)"/>
<path d="M27.0396 11.4679C29.7244 12.1448 31.7103 14.5576 31.7103 17.4304C31.7103 20.828 28.9326 23.5823 25.5061 23.5823C24.5543 23.5823 23.7827 24.3474 23.7827 25.2912C23.7827 26.235 24.5543 27 25.5061 27C30.8362 27 35.157 22.7156 35.157 17.4304C35.157 12.6832 31.6709 8.7433 27.0987 7.99048C27.1847 8.5042 27.2295 9.03174 27.2295 9.56965C27.2295 10.2196 27.1642 10.8543 27.0396 11.4679Z" fill="url(#paint2_linear_1801_2185)"/>
<ellipse cx="17.5784" cy="17.4304" rx="1.72338" ry="1.70886" fill="#8B33FF"/>
<path d="M158.799 23.9501C158.135 23.9501 157.597 23.4197 157.597 22.7646C157.597 22.1813 158.025 21.6971 158.588 21.5989C158.451 21.6083 158.338 21.6263 158.175 21.6263C157.825 21.6263 157.548 21.5895 157.346 21.5168C157.143 21.4262 156.987 21.2987 156.876 21.1354C156.784 20.9721 156.72 20.772 156.682 20.5361C156.664 20.3001 156.655 20.0179 156.655 19.6913V12.462H159.353C159.609 12.462 159.815 12.2581 159.815 12.0061V10.3646C159.815 10.1126 159.609 9.90874 159.353 9.90874H156.655V8.36642C156.655 8.02756 156.293 7.80763 155.987 7.95865L153.761 9.05357C153.605 9.13097 153.504 9.2886 153.504 9.46133V20.4813C153.523 21.0628 153.578 21.581 153.671 22.035C153.781 22.489 153.975 22.8713 154.252 23.1799C154.546 23.4706 154.942 23.6981 155.439 23.8614C155.955 24.0068 156.627 24.0794 157.456 24.0794C157.806 24.0794 158.148 24.0615 158.478 24.0247C158.686 24.0021 158.868 23.9785 159.012 23.9294C158.943 23.9416 158.872 23.9492 158.799 23.9492V23.9501Z" fill="#1D1843"/>
<path d="M158.799 23.9501C158.135 23.9501 157.597 23.4196 157.597 22.7646C157.597 22.1812 158.025 21.697 158.588 21.5989C158.451 21.6083 158.338 21.6262 158.175 21.6262C157.825 21.6262 157.548 21.5894 157.346 21.5167C157.143 21.4261 156.987 21.2987 156.876 21.1354C156.784 20.9721 156.72 20.772 156.682 20.536C156.664 20.3001 156.655 20.0178 156.655 19.6912V19.4609H153.504V20.4813C153.523 21.0627 153.578 21.5809 153.671 22.0349C153.781 22.489 153.975 22.8712 154.252 23.1799C154.546 23.4706 154.942 23.6981 155.439 23.8614C155.955 24.0067 156.627 24.0794 157.456 24.0794C157.806 24.0794 158.148 24.0615 158.478 24.0247C158.686 24.002 158.868 23.9784 159.012 23.9293C158.943 23.9416 158.872 23.9492 158.799 23.9492V23.9501Z" fill="url(#paint3_linear_1801_2185)"/>
<path d="M160 22.7656C160 23.4207 159.462 23.9511 158.798 23.9511C158.135 23.9511 157.597 23.4207 157.597 22.7656C157.597 22.1105 158.135 21.5801 158.798 21.5801C159.462 21.5801 160 22.1105 160 22.7656Z" fill="#8041F4"/>
<path fill-rule="evenodd" clip-rule="evenodd" d="M112.108 9.88803C112.134 9.33207 112.238 9.00643 112.526 8.68645C112.872 8.28624 113.382 8.08613 114.055 8.08613C114.383 8.08613 114.611 8.14088 114.922 8.25037C115.279 8.35514 115.683 8.29096 115.788 7.93794L116.233 6.43337C116.307 6.18513 116.228 5.90668 115.998 5.78303C115.793 5.67259 115.573 5.60085 115.244 5.52062C114.743 5.3932 114.393 5.32996 113.823 5.32996C112.234 5.32996 111.007 5.76981 110.143 6.69766C109.353 7.54717 109.09 8.52032 109.059 9.88897H107.392C107.086 9.88897 106.837 10.1334 106.837 10.4364V11.8957C106.837 12.1977 107.085 12.4432 107.392 12.4432H109.056V23.2017C109.056 23.5037 109.303 23.7491 109.61 23.7491H111.643C111.95 23.7491 112.198 23.5047 112.198 23.2017V12.4403" fill="#1D1843"/>
<path d="M114.812 9.88794C114.802 9.88794 114.793 9.88888 114.784 9.88888H112.108L112.196 12.4402H114.784C114.793 12.4393 114.802 12.4402 114.812 12.4402C115.526 12.4402 116.105 11.8692 116.105 11.1641C116.105 10.459 115.526 9.88794 114.812 9.88794V9.88794Z" fill="url(#paint4_linear_1801_2185)"/>
<path d="M116.108 11.1641C116.108 11.8692 115.529 12.4402 114.815 12.4402C114.1 12.4402 113.521 11.8692 113.521 11.1641C113.521 10.459 114.1 9.88794 114.815 9.88794C115.529 9.88794 116.108 10.459 116.108 11.1641V11.1641Z" fill="#8041F4"/>
<path fill-rule="evenodd" clip-rule="evenodd" d="M134.283 11.839V10.3438C134.283 10.089 134.08 9.88794 133.821 9.88794H131.604C131.346 9.88794 131.142 10.089 131.142 10.3438V23.2903C131.142 23.5452 131.346 23.7462 131.604 23.7462H133.821C134.08 23.7462 134.283 23.5452 134.283 23.2903V11.839Z" fill="#1D1843"/>
<path d="M139.689 11.0736C139.689 11.9306 139.025 12.6234 138.21 12.6234C137.396 12.6234 136.731 11.9306 136.731 11.0736C136.731 10.2165 137.396 9.52368 138.21 9.52368C139.025 9.52368 139.689 10.2165 139.689 11.0736Z" fill="#8041F4"/>
<path fill-rule="evenodd" clip-rule="evenodd" d="M102.403 5.96709C102.403 5.81229 102.523 5.69336 102.68 5.69336H104.344C104.501 5.69336 104.621 5.81229 104.621 5.96709V23.4726C104.621 23.6274 104.501 23.7463 104.344 23.7463H102.68C102.523 23.7463 102.403 23.6274 102.403 23.4726V21.8953C101.441 23.2357 100.074 24.02 97.9392 24.02C93.9471 24.02 91.5908 20.7381 91.5908 16.7445C91.5908 12.7509 94.0762 9.52369 97.9392 9.52369C99.6764 9.52369 101.247 10.2986 102.403 11.5663V5.96709ZM102.588 16.7719C102.588 19.5526 101.007 21.8047 98.3553 21.8047C95.7035 21.8047 94.1231 19.5526 94.1231 16.7719C94.1231 13.9911 95.7494 11.739 98.3553 11.739C100.961 11.739 102.588 13.9911 102.588 16.7719V16.7719Z" fill="#1D1843"/>
<path fill-rule="evenodd" clip-rule="evenodd" d="M70.0596 24.02C73.8393 24.02 76.8977 21.1119 76.8977 16.7719C76.8977 12.4318 73.8393 9.52368 70.0596 9.52368C66.2799 9.52368 63.2214 12.396 63.2214 16.7719C63.2214 21.1478 66.2799 24.02 70.0596 24.02ZM70.0596 21.9869C72.4617 21.9869 74.4028 19.9443 74.4028 16.7719C74.4028 13.5994 72.4617 11.5568 70.0596 11.5568C67.6574 11.5568 65.7164 13.4984 65.7164 16.7719C65.7164 20.0453 67.6574 21.9869 70.0596 21.9869Z" fill="#1D1843"/>
<path d="M59.4331 5.96709C59.4331 5.81229 59.5536 5.69336 59.7105 5.69336H61.466C61.6229 5.69336 61.7434 5.81229 61.7434 5.96709V23.4726C61.7434 23.6274 61.6229 23.7463 61.466 23.7463H59.7105C59.5536 23.7463 59.4331 23.6274 59.4331 23.4726V5.96709Z" fill="#1D1843"/>
<path d="M45.2019 16.7445C45.2019 15.2947 45.4793 14.027 46.0332 12.9519C46.5881 11.8579 47.3544 11.0103 48.334 10.4176C49.3413 9.82478 50.4778 9.52368 51.7531 9.52368C53.4071 9.52368 54.7656 9.94277 55.8284 10.7819C56.7984 11.5295 57.4729 12.5508 57.8431 13.8184C57.9082 14.0459 57.7321 14.2649 57.492 14.2649H55.838C55.6715 14.2649 55.5242 14.1554 55.4687 13.9911C55.219 13.2615 54.8038 12.6782 54.203 12.2402C53.5468 11.7475 52.7336 11.5021 51.754 11.5021C50.4788 11.5021 49.4533 11.9674 48.6679 12.8877C47.8824 13.7901 47.494 15.0851 47.494 16.7539C47.494 18.4227 47.8824 19.7536 48.6679 20.6749C49.4533 21.5961 50.4788 22.0605 51.754 22.0605C52.7336 22.0605 53.5563 21.8236 54.203 21.3403C54.7942 20.9118 55.2104 20.319 55.4687 19.562C55.5242 19.4072 55.6629 19.2977 55.8293 19.2977H57.4738C57.714 19.2977 57.89 19.5167 57.8154 19.7442C57.427 20.975 56.7525 21.9784 55.7825 22.7533C54.7015 23.6104 53.3526 24.0295 51.7349 24.0295C50.4597 24.0295 49.3232 23.7284 48.3254 23.1356C47.3639 22.5249 46.5881 21.6763 46.0332 20.5918C45.4793 19.4978 45.2019 18.2122 45.2019 16.7445Z" fill="#1D1843"/>
<path fill-rule="evenodd" clip-rule="evenodd" d="M126.244 16.7529C126.244 19.3147 124.756 21.0288 122.501 21.0288C120.246 21.0288 118.759 19.3241 118.759 16.7529C118.759 14.1818 120.246 12.4771 122.501 12.4771C121.679 12.4771 121.004 11.8117 121.004 10.9999C121.004 10.1882 121.679 9.52271 122.501 9.52271C118.463 9.52271 115.524 12.5866 115.524 16.7709C115.524 20.9552 118.463 24.0191 122.501 24.0191C126.539 24.0191 129.478 20.9552 129.478 16.7709L126.244 16.7529V16.7529Z" fill="#1D1843"/>
<path fill-rule="evenodd" clip-rule="evenodd" d="M129.478 16.7719C129.478 12.5866 126.539 9.52368 122.501 9.52368C123.324 9.52368 123.998 10.1891 123.998 11.0009C123.998 11.8126 123.334 12.4781 122.501 12.4781C124.756 12.4781 126.244 14.1922 126.244 16.7539L129.478 16.7719V16.7719Z" fill="url(#paint5_linear_1801_2185)"/>
<path fill-rule="evenodd" clip-rule="evenodd" d="M122.501 12.4771C121.679 12.4771 121.004 11.8117 121.004 10.9999C121.004 10.1882 121.679 9.52271 122.501 9.52271" fill="#1D1843"/>
<path d="M123.998 10.9999C123.998 11.8117 123.324 12.4771 122.501 12.4771C121.679 12.4771 121.004 11.8117 121.004 10.9999C121.004 10.1882 121.679 9.52271 122.501 9.52271C123.324 9.52271 123.998 10.1882 123.998 10.9999V10.9999Z" fill="#8041F4"/>
<path fill-rule="evenodd" clip-rule="evenodd" d="M136.741 11.0736C136.741 10.2344 137.379 9.55105 138.183 9.52368H138.062C137.637 9.52368 137.231 9.58787 136.833 9.70585C136.436 9.83328 136.066 10.007 135.724 10.2439C135.383 10.4629 135.068 10.7366 134.8 11.0641C134.596 11.301 134.421 11.5653 134.282 11.8391V16.5708C134.282 16.0233 134.338 15.5221 134.449 15.0577C134.56 14.5933 134.735 14.1828 134.994 13.8448C135.262 13.489 135.605 13.2068 136.029 13.0057C136.454 12.8047 136.88 12.614 137.582 12.614C137.739 12.614 137.896 12.6234 138.062 12.6234C138.108 12.6234 138.155 12.6234 138.201 12.6329C137.388 12.6149 136.741 11.9221 136.741 11.0736V11.0736Z" fill="url(#paint6_linear_1801_2185)"/>
<path fill-rule="evenodd" clip-rule="evenodd" d="M78.3767 10.3438C78.3767 10.089 78.5805 9.88794 78.8388 9.88794H80.1322C80.3905 9.88794 80.5942 10.089 80.5942 10.3438V19.1419C80.5942 20.3001 80.8994 20.8107 81.4169 21.3298C81.9345 21.8405 82.7381 22.0047 83.644 22.0047C84.3644 22.0047 84.9843 21.8952 85.5019 21.6763C86.0376 21.4573 86.4815 21.1477 86.8326 20.7371C87.1836 20.3359 87.4429 19.8621 87.6084 19.3326C87.7653 18.8493 87.8581 18.3386 87.8858 17.7921V10.3438C87.8858 10.089 88.0896 9.88794 88.3479 9.88794H89.6413C89.8996 9.88794 90.1033 10.089 90.1033 10.3438V23.2903C90.1033 23.5452 89.8996 23.7462 89.6413 23.7462H88.3479C88.0896 23.7462 87.8858 23.5452 87.8858 23.2903V21.6404C87.396 22.4427 86.7866 23.0449 86.0558 23.4461C85.2799 23.8472 84.3644 24.0483 83.3111 24.0483C82.3688 24.0483 81.5834 23.9293 80.9549 23.6924C80.3264 23.4376 79.8184 23.0817 79.43 22.6164C79.0416 22.1605 78.7651 21.613 78.5987 20.9938C78.4504 20.3557 78.3767 19.9178 78.3767 19.2429V10.3438Z" fill="#1D1843"/>
<path d="M145.699 9.52271C142.33 9.52271 139.558 11.9495 139.231 15.8893C139.192 16.2234 139.171 16.5802 139.171 16.9521C139.171 17.1626 139.178 17.3693 139.191 17.5694H142.396C142.396 17.559 142.396 17.5477 142.396 17.5373H151.23C151.715 17.5373 152.109 17.1494 152.109 16.6708V15.7788C151.926 11.9164 149.743 9.52271 145.699 9.52271V9.52271ZM142.466 15.1058C142.808 13.3436 144.146 12.1345 145.744 12.1345C147.342 12.1345 148.88 13.0765 149.049 15.1058H142.466Z" fill="#1D1843"/>
<path d="M139.192 17.5694C139.204 17.762 139.222 17.9498 139.246 18.1292C139.637 21.5168 142.428 24.02 145.801 24.02C148.195 24.02 149.914 23.2073 150.932 21.6678C151.135 21.4451 151.258 21.1515 151.258 20.8287C151.258 20.134 150.687 19.5705 149.983 19.5705C149.642 19.5705 149.334 19.7026 149.106 19.9169L149.093 19.9292C149.088 19.9339 149.083 19.9395 149.077 19.9443L148.738 20.2661C148.069 20.9703 147.123 21.4082 146.075 21.4082C143.948 21.3186 142.76 20.1151 142.392 17.7167C142.392 17.6666 142.394 17.6176 142.396 17.5685H139.191L139.192 17.5694Z" fill="url(#paint7_linear_1801_2185)"/>
<path d="M151.259 20.8286C151.259 21.5234 150.688 22.0869 149.984 22.0869C149.28 22.0869 148.709 21.5234 148.709 20.8286C148.709 20.1339 149.28 19.5704 149.984 19.5704C150.688 19.5704 151.259 20.1339 151.259 20.8286Z" fill="#8041F4"/>
<defs>
<linearGradient id="paint0_linear_1801_2185" x1="2.08863" y1="23.8577" x2="17.2458" y2="10.5546" gradientUnits="userSpaceOnUse">
<stop stop-color="#8B33FF"/>
<stop offset="1" stop-color="#AA99FF"/>
</linearGradient>
<linearGradient id="paint1_linear_1801_2185" x1="29.7455" y1="3.55443" x2="8.11061" y2="11.8408" gradientUnits="userSpaceOnUse">
<stop stop-color="#00E0D9"/>
<stop offset="1" stop-color="#0059F5"/>
</linearGradient>
<linearGradient id="paint2_linear_1801_2185" x1="30.4005" y1="8.85192" x2="18.2515" y2="25.6158" gradientUnits="userSpaceOnUse">
<stop stop-color="#009FF5"/>
<stop offset="1" stop-color="#8B33FF"/>
</linearGradient>
<linearGradient id="paint3_linear_1801_2185" x1="158.42" y1="24.7411" x2="154.391" y2="19.8749" gradientUnits="userSpaceOnUse">
<stop offset="0.22" stop-color="#752DDA"/>
<stop offset="0.65" stop-color="#1D1843"/>
</linearGradient>
<linearGradient id="paint4_linear_1801_2185" x1="112.108" y1="11.1641" x2="116.105" y2="11.1641" gradientUnits="userSpaceOnUse">
<stop stop-color="#1D1843"/>
<stop offset="0.05" stop-color="#21194A"/>
<stop offset="0.13" stop-color="#2C1B5E"/>
<stop offset="0.22" stop-color="#3F207E"/>
<stop offset="0.32" stop-color="#5A26AB"/>
<stop offset="0.41" stop-color="#752DDA"/>
</linearGradient>
<linearGradient id="paint5_linear_1801_2185" x1="121.619" y1="11.9155" x2="130.114" y2="15.0489" gradientUnits="userSpaceOnUse">
<stop offset="0.24" stop-color="#752DDA"/>
<stop offset="0.25" stop-color="#712CD3"/>
<stop offset="0.38" stop-color="#5324A0"/>
<stop offset="0.49" stop-color="#3B1F77"/>
<stop offset="0.6" stop-color="#2A1B5A"/>
<stop offset="0.69" stop-color="#201849"/>
<stop offset="0.75" stop-color="#1D1843"/>
</linearGradient>
<linearGradient id="paint6_linear_1801_2185" x1="133.314" y1="13.943" x2="139.035" y2="11.8322" gradientUnits="userSpaceOnUse">
<stop offset="0.27" stop-color="#1D1843"/>
<stop offset="0.33" stop-color="#21194A"/>
<stop offset="0.41" stop-color="#2C1B5E"/>
<stop offset="0.51" stop-color="#3F207E"/>
<stop offset="0.62" stop-color="#5A26AB"/>
<stop offset="0.72" stop-color="#752DDA"/>
</linearGradient>
<linearGradient id="paint7_linear_1801_2185" x1="140.22" y1="21.6754" x2="150.584" y2="18.4638" gradientUnits="userSpaceOnUse">
<stop offset="0.41" stop-color="#1D1843"/>
<stop offset="0.47" stop-color="#261A53"/>
<stop offset="0.58" stop-color="#3F207E"/>
<stop offset="0.74" stop-color="#6829C4"/>
<stop offset="0.78" stop-color="#752DDA"/>
</linearGradient>
</defs>
</svg>
