<svg width="831" height="142" viewBox="0 0 831 142" fill="none" xmlns="http://www.w3.org/2000/svg">
<ellipse cx="91.1883" cy="133.013" rx="8.94003" ry="8.98734" fill="#1F1646"/>
<path d="M50.0642 124.025C32.2894 124.025 17.8801 109.54 17.8801 91.6709C17.8801 73.802 32.2894 59.3165 50.0642 59.3165C67.839 59.3165 82.2483 73.802 82.2483 91.6709C82.2483 96.6345 86.2509 100.658 91.1883 100.658C96.1258 100.658 100.128 96.6345 100.128 91.6709C100.128 63.8749 77.7139 41.3418 50.0642 41.3418C22.4145 41.3418 0 63.8749 0 91.6709C0 119.467 22.4145 142 50.0642 142C55.0016 142 59.0042 137.976 59.0042 133.013C59.0042 128.049 55.0016 124.025 50.0642 124.025Z" fill="url(#paint0_linear_2055_4838)"/>
<path d="M99.1436 81.6876C113.071 78.1277 123.373 65.4378 123.373 50.3291C123.373 32.4602 108.963 17.9747 91.1885 17.9747C76.1593 17.9747 63.5361 28.3308 59.9951 42.3318C56.7853 41.6825 53.4644 41.3417 50.0643 41.3417C47.2502 41.3417 44.4903 41.5752 41.8027 42.0238C45.7411 18.1798 66.3529 0 91.1885 0C118.838 0 141.253 22.5331 141.253 50.3291C141.253 78.1251 118.838 100.658 91.1885 100.658C96.1259 100.658 100.129 96.6344 100.129 91.6708C100.129 88.2528 99.7896 84.9143 99.1436 81.6876Z" fill="url(#paint1_linear_2055_4838)"/>
<path d="M140.268 60.3125C154.195 63.8724 164.497 76.5623 164.497 91.671C164.497 109.54 150.087 124.025 132.312 124.025C127.375 124.025 123.372 128.049 123.372 133.013C123.372 137.976 127.375 142 132.312 142C159.962 142 182.377 119.467 182.377 91.671C182.377 66.704 164.293 45.9832 140.574 42.0239C141.02 44.7257 141.253 47.5002 141.253 50.3292C141.253 53.7473 140.914 57.0857 140.268 60.3125Z" fill="url(#paint2_linear_2055_4838)"/>
<ellipse cx="91.1883" cy="91.6708" rx="8.94003" ry="8.98734" fill="#1F1646"/>
<path d="M830.293 119.726C830.293 116.281 827.503 113.491 824.057 113.491C823.684 113.491 823.322 113.531 822.965 113.591C822.255 113.64 821.669 113.735 820.82 113.735C819.002 113.735 817.568 113.541 816.52 113.159C815.462 112.682 814.653 112.012 814.077 111.153C813.6 110.295 813.268 109.242 813.074 108.001C812.98 106.76 812.93 105.276 812.93 103.558V65.5392H826.937C828.262 65.5392 829.335 64.467 829.335 63.1416V54.5092C829.335 53.1838 828.262 52.1116 826.937 52.1116H812.93V44.0004C812.93 42.2184 811.053 41.0618 809.465 41.856L797.911 47.6142C797.101 48.0213 796.58 48.8503 796.58 49.7587V107.713C796.674 110.771 796.962 113.496 797.444 115.884C798.015 118.272 799.023 120.282 800.458 121.905C801.987 123.434 804.043 124.631 806.62 125.489C809.301 126.254 812.786 126.636 817.091 126.636C818.908 126.636 820.681 126.542 822.394 126.348C823.471 126.229 824.419 126.105 825.164 125.847C828.079 125.326 830.298 122.784 830.298 119.716L830.293 119.726ZM822.463 113.705C822.463 113.705 822.428 113.715 822.413 113.72C822.428 113.72 822.448 113.71 822.463 113.705ZM821.947 113.869C821.947 113.869 821.902 113.884 821.877 113.893C821.902 113.884 821.922 113.879 821.947 113.869ZM821.44 114.077C821.44 114.077 821.396 114.097 821.371 114.112C821.396 114.102 821.415 114.087 821.44 114.077ZM820.949 114.33C820.949 114.33 820.914 114.35 820.899 114.36C820.919 114.35 820.934 114.34 820.949 114.33ZM817.826 119.726C817.826 119.523 817.836 119.319 817.855 119.121C817.836 119.319 817.826 119.523 817.826 119.726C817.826 121.449 818.526 123.007 819.653 124.134C818.526 123.007 817.826 121.449 817.826 119.726ZM819.355 115.646C819.355 115.646 819.315 115.685 819.295 115.71C819.315 115.69 819.335 115.671 819.355 115.646ZM819.082 115.988C819.037 116.048 818.993 116.107 818.948 116.167C818.993 116.107 819.037 116.048 819.082 115.988ZM818.779 116.425C818.729 116.5 818.685 116.579 818.64 116.653C818.685 116.574 818.734 116.5 818.779 116.425ZM818.506 116.907C818.461 116.996 818.417 117.085 818.377 117.175C818.417 117.085 818.461 116.996 818.506 116.907ZM818.273 117.423C818.233 117.522 818.198 117.621 818.163 117.721C818.198 117.621 818.233 117.517 818.273 117.423ZM818.084 117.964C818.049 118.073 818.024 118.187 817.999 118.301C818.024 118.187 818.054 118.073 818.084 117.964ZM817.945 118.53C817.92 118.659 817.9 118.793 817.885 118.922C817.9 118.788 817.92 118.659 817.945 118.53ZM822.21 125.678C822.796 125.862 823.416 125.956 824.062 125.956C823.416 125.956 822.796 125.857 822.21 125.678ZM824.067 125.956C824.255 125.956 824.444 125.946 824.628 125.926C824.444 125.946 824.255 125.956 824.067 125.956Z" fill="#1F1646"/>
<path d="M591.84 42.5262C593.543 42.5262 594.725 42.8141 596.339 43.39C598.191 43.941 600.291 43.6034 600.832 41.7469L603.146 33.8343C603.528 32.5287 603.116 31.0644 601.924 30.4141C600.862 29.8333 599.72 29.456 598.012 29.0341C595.41 28.364 593.593 28.0314 590.634 28.0314C582.387 28.0314 576.022 30.3446 571.538 35.2242C567.437 39.6918 566.072 44.8097 565.908 52.0075H557.259C555.67 52.0075 554.379 53.2931 554.379 54.8866V62.5609C554.379 64.1494 555.665 65.44 557.259 65.44H565.893V122.02C565.893 123.608 567.179 124.899 568.773 124.899H579.323C580.912 124.899 582.203 123.613 582.203 122.02V65.4251L581.861 55.3681L582.203 65.4251H595.634C595.683 65.4202 595.728 65.4251 595.778 65.4251H595.793C599.502 65.4251 602.505 62.4219 602.505 58.7138C602.505 55.0057 599.502 52.0025 595.793 52.0025H595.778C595.728 52.0025 595.683 52.0075 595.634 52.0075H581.746C581.88 49.0787 582.422 47.3612 583.916 45.6833C585.709 43.5786 588.355 42.5262 591.85 42.5262H591.84Z" fill="#1F1646"/>
<path fill-rule="evenodd" clip-rule="evenodd" d="M531.361 31.3821C531.361 30.568 531.986 29.9425 532.801 29.9425H541.435C542.249 29.9425 542.875 30.568 542.875 31.3821V123.444C542.875 124.258 542.249 124.884 541.435 124.884H532.801C531.986 124.884 531.361 124.258 531.361 123.444V115.149C526.371 122.198 519.276 126.323 508.194 126.323C487.475 126.323 475.246 109.064 475.246 88.0609C475.246 67.0583 488.145 50.0864 508.194 50.0864C517.21 50.0864 525.363 54.1618 531.361 60.8285V31.3821ZM532.319 88.2049C532.319 102.829 524.117 114.673 510.354 114.673C496.59 114.673 488.388 102.829 488.388 88.2049C488.388 73.581 496.829 61.7369 510.354 61.7369C523.878 61.7369 532.319 73.581 532.319 88.2049V88.2049Z" fill="#1F1646"/>
<path fill-rule="evenodd" clip-rule="evenodd" d="M363.497 126.323C383.114 126.323 398.987 111.029 398.987 88.2048C398.987 65.3804 383.114 50.0863 363.497 50.0863C343.88 50.0863 328.006 65.1917 328.006 88.2048C328.006 111.218 343.88 126.323 363.497 126.323ZM363.497 115.631C375.964 115.631 386.038 104.889 386.038 88.2048C386.038 71.5208 375.964 60.7787 363.497 60.7787C351.029 60.7787 340.955 70.9897 340.955 88.2048C340.955 105.42 351.029 115.631 363.497 115.631Z" fill="#1F1646"/>
<path d="M308.345 31.3821C308.345 30.568 308.97 29.9425 309.785 29.9425H318.895C319.71 29.9425 320.335 30.568 320.335 31.3821V123.444C320.335 124.258 319.71 124.884 318.895 124.884H309.785C308.97 124.884 308.345 124.258 308.345 123.444V31.3821Z" fill="#1F1646"/>
<path d="M234.484 88.0608C234.484 80.4361 235.924 73.7695 238.799 68.1155C241.679 62.3623 245.656 57.9046 250.74 54.7872C255.968 51.6698 261.867 50.0863 268.485 50.0863C277.07 50.0863 284.12 52.2903 289.636 56.7033C294.671 60.6348 298.171 66.0058 300.093 72.6725C300.43 73.8688 299.517 75.0204 298.271 75.0204H289.686C288.822 75.0204 288.057 74.4446 287.769 73.5809C286.474 69.7437 284.319 66.676 281.201 64.3727C277.795 61.7815 273.574 60.4908 268.49 60.4908C261.872 60.4908 256.549 62.9381 252.473 67.778C248.396 72.5235 246.381 79.3341 246.381 88.1105C246.381 96.8868 248.396 103.886 252.473 108.731C256.549 113.576 261.872 116.018 268.49 116.018C273.574 116.018 277.844 114.772 281.201 112.231C284.269 109.977 286.429 106.859 287.769 102.878C288.057 102.064 288.777 101.488 289.641 101.488H298.176C299.422 101.488 300.336 102.64 299.949 103.836C297.933 110.309 294.433 115.586 289.398 119.662C283.787 124.169 276.787 126.373 268.391 126.373C261.772 126.373 255.874 124.789 250.695 121.672C245.705 118.46 241.679 113.998 238.799 108.294C235.924 102.541 234.484 95.7798 234.484 88.0608Z" fill="#1F1646"/>
<path d="M635.672 50.0814C614.715 50.0814 599.462 66.1945 599.462 88.1999C599.462 110.205 614.715 126.318 635.672 126.318C656.63 126.318 671.882 110.205 671.882 88.1999C671.882 66.1945 656.63 50.0814 635.672 50.0814V50.0814ZM635.672 110.592C623.97 110.592 616.249 101.628 616.249 88.1056C616.249 74.5837 623.97 65.6187 635.672 65.6187C639.942 65.6187 643.442 62.1191 643.442 57.8501C643.442 62.1191 639.992 65.6187 635.672 65.6187C647.375 65.6187 655.096 74.6333 655.096 88.1056C655.096 101.578 647.375 110.592 635.672 110.592Z" fill="#1F1646"/>
<path d="M717.204 50.0814C717.075 50.0814 716.95 50.0963 716.821 50.1013C716.901 50.0963 716.975 50.0814 717.06 50.0814H716.434C714.23 50.0814 712.119 50.419 710.054 51.0395C707.993 51.7096 706.072 52.623 704.299 53.8689C702.527 55.0206 700.893 56.4601 699.503 58.1827C698.446 59.4286 697.537 60.8185 696.817 62.2581V54.3951C696.817 53.0549 695.759 51.9975 694.419 51.9975H682.91C681.569 51.9975 680.512 53.0549 680.512 54.3951V122.486C680.512 123.826 681.569 124.884 682.91 124.884H694.419C695.759 124.884 696.817 123.826 696.817 122.486V87.1475C696.817 84.2684 697.105 81.6325 697.681 79.1903C698.257 76.743 699.165 74.5886 700.511 72.8115C701.901 70.9401 703.679 69.4559 705.883 68.3985C708.088 67.3412 710.297 66.3385 713.942 66.3385C714.756 66.3385 715.57 66.3881 716.434 66.3881C716.469 66.3881 716.504 66.3881 716.543 66.3881C715.749 66.3037 714.999 66.0903 714.294 65.7726C715.193 66.1648 716.171 66.3832 717.199 66.3832C721.419 66.3832 724.875 62.7396 724.875 58.2323C724.875 53.725 721.469 50.0814 717.199 50.0814H717.204ZM713.728 65.4896C713.822 65.5393 713.912 65.5889 714.006 65.6336C713.912 65.5889 713.817 65.5393 713.728 65.4896Z" fill="#1F1646"/>
<path d="M716.543 66.3882C716.747 66.408 716.95 66.4279 717.154 66.4329C716.95 66.3931 716.747 66.3882 716.543 66.3882Z" fill="#1F1646"/>
<path fill-rule="evenodd" clip-rule="evenodd" d="M406.663 54.4001C406.663 53.0598 407.721 52.0024 409.061 52.0024H415.774C417.115 52.0024 418.172 53.0598 418.172 54.4001V100.669C418.172 106.76 419.756 109.446 422.442 112.176C425.128 114.861 429.299 115.725 434.001 115.725C437.739 115.725 440.957 115.149 443.643 113.998C446.423 112.846 448.727 111.218 450.549 109.059C452.372 106.949 453.717 104.457 454.576 101.672C455.39 99.1306 455.872 96.4451 456.016 93.5709V54.4001C456.016 53.0598 457.073 52.0024 458.414 52.0024H465.127C466.467 52.0024 467.525 53.0598 467.525 54.4001V122.486C467.525 123.826 466.467 124.884 465.127 124.884H458.414C457.073 124.884 456.016 123.826 456.016 122.486V113.809C453.474 118.028 450.311 121.196 446.518 123.305C442.491 125.415 437.739 126.472 432.273 126.472C427.382 126.472 423.306 125.847 420.044 124.601C416.782 123.261 414.145 121.389 412.13 118.942C410.114 116.544 408.679 113.665 407.815 110.409C407.045 107.053 406.663 104.75 406.663 101.201V54.4001Z" fill="#1F1646"/>
<path d="M756.07 50.0813C738.583 50.0813 724.199 62.8438 722.501 83.5635C722.298 85.3207 722.188 87.1971 722.188 89.1529C722.188 90.2599 722.223 91.347 722.293 92.3994C722.357 93.412 722.452 94.3998 722.576 95.343C724.601 113.159 739.09 126.323 756.596 126.323C769.019 126.323 777.941 122.049 783.224 113.953C783.353 113.809 783.477 113.66 783.591 113.506L783.606 113.486C783.716 113.337 783.82 113.184 783.919 113.03C783.929 113.01 783.939 112.995 783.954 112.975C784.043 112.826 784.128 112.677 784.207 112.523C784.227 112.489 784.242 112.454 784.257 112.419C784.326 112.275 784.391 112.136 784.45 111.987C784.47 111.933 784.49 111.873 784.51 111.818C784.56 111.684 784.604 111.555 784.644 111.416C784.669 111.337 784.689 111.253 784.709 111.168C784.738 111.054 784.768 110.935 784.793 110.816C784.818 110.702 784.833 110.577 784.848 110.463C784.863 110.374 784.877 110.285 784.887 110.19C784.907 109.977 784.922 109.758 784.922 109.54C784.922 109.083 784.877 108.637 784.788 108.205C784.699 107.773 784.57 107.361 784.401 106.964C784.267 106.646 784.103 106.343 783.919 106.055C783.845 105.941 783.77 105.822 783.691 105.713C783.229 105.062 782.658 104.502 781.998 104.055C781.824 103.936 781.64 103.826 781.452 103.722C780.513 103.211 779.441 102.923 778.299 102.923C778.075 102.923 777.852 102.933 777.633 102.958C777.529 102.968 777.425 102.988 777.326 103.002C777.216 103.017 777.102 103.032 776.993 103.052C776.849 103.082 776.715 103.122 776.576 103.156C776.511 103.176 776.447 103.186 776.382 103.206C776.218 103.256 776.059 103.315 775.901 103.375C775.866 103.39 775.831 103.4 775.796 103.414C775.618 103.489 775.449 103.568 775.28 103.653C775.265 103.658 775.25 103.668 775.24 103.673C775.062 103.767 774.888 103.871 774.714 103.98C774.371 104.204 774.049 104.462 773.751 104.74H773.746L773.681 104.804C773.651 104.829 773.627 104.859 773.597 104.884L771.839 106.577C768.364 110.28 763.453 112.583 758.016 112.583C746.979 112.111 740.812 105.782 738.901 93.1688C738.901 92.9057 738.911 92.6476 738.921 92.3894C738.921 92.3348 738.921 92.2753 738.921 92.2207H784.773C787.29 92.2207 789.331 90.1805 789.331 87.6637V82.9727C788.383 62.6601 777.052 50.0714 756.065 50.0714L756.07 50.0813ZM739.288 79.4433C741.066 70.1756 748.012 63.8167 756.303 63.8167C764.595 63.8167 772.579 68.7708 773.458 79.4433H739.288Z" fill="#1F1646"/>
<defs>
<linearGradient id="paint0_linear_2055_4838" x1="4.64882" y1="118.453" x2="87.55" y2="59.3712" gradientUnits="userSpaceOnUse">
<stop stop-color="#1F1646"/>
<stop offset="1" stop-color="#1F1646" stop-opacity="0.5"/>
</linearGradient>
<linearGradient id="paint1_linear_2055_4838" x1="99.0556" y1="78.5493" x2="85.3454" y2="0.0211922" gradientUnits="userSpaceOnUse">
<stop stop-color="#1F1646" stop-opacity="0.5"/>
<stop offset="1" stop-color="#1F1646"/>
</linearGradient>
<linearGradient id="paint2_linear_2055_4838" x1="134.458" y1="48.8912" x2="177.626" y2="135.487" gradientUnits="userSpaceOnUse">
<stop stop-color="#1F1646" stop-opacity="0.5"/>
<stop offset="1" stop-color="#1F1646"/>
</linearGradient>
</defs>
</svg>
