<svg width="469" height="366" viewBox="0 0 469 366" fill="none" xmlns="http://www.w3.org/2000/svg">
<ellipse cx="234" cy="215.301" rx="14.625" ry="14.5473" fill="white"/>
<path d="M166.725 200.753C137.647 200.753 114.075 177.306 114.075 148.383C114.075 119.459 137.647 96.0124 166.725 96.0124C195.803 96.0124 219.375 119.459 219.375 148.383C219.375 156.417 225.923 162.93 234 162.93C242.077 162.93 248.625 156.417 248.625 148.383C248.625 103.391 211.957 66.9177 166.725 66.9177C121.493 66.9177 84.825 103.391 84.825 148.383C84.825 193.375 121.493 229.848 166.725 229.848C174.802 229.848 181.35 223.335 181.35 215.301C181.35 207.266 174.802 200.753 166.725 200.753Z" fill="url(#paint0_linear_2055_5012)"/>
<path d="M247.014 132.223C269.798 126.461 286.65 105.921 286.65 81.4651C286.65 52.5417 263.078 29.0947 234 29.0947C209.414 29.0947 188.764 45.8576 182.971 68.5203C177.72 67.4693 172.287 66.9177 166.725 66.9177C162.122 66.9177 157.607 67.2956 153.21 68.0217C159.653 29.4266 193.372 0 234 0C279.232 0 315.9 36.4732 315.9 81.4651C315.9 126.457 279.232 162.93 234 162.93C242.077 162.93 248.625 156.417 248.625 148.383C248.625 142.85 248.071 137.446 247.014 132.223Z" fill="url(#paint1_linear_2055_5012)"/>
<path d="M314.289 97.6246C337.073 103.387 353.925 123.927 353.925 148.383C353.925 177.306 330.353 200.753 301.275 200.753C293.198 200.753 286.65 207.266 286.65 215.301C286.65 223.335 293.198 229.848 301.275 229.848C346.507 229.848 383.175 193.375 383.175 148.383C383.175 107.97 353.591 74.4305 314.79 68.0219C315.52 72.3951 315.9 76.886 315.9 81.4652C315.9 86.9978 315.346 92.4016 314.289 97.6246Z" fill="url(#paint2_linear_2055_5012)"/>
<ellipse cx="234" cy="148.383" rx="14.625" ry="14.5473" fill="white"/>
<g clip-path="url(#clip0_2055_5012)">
<path d="M468.23 360.259C468.23 357.56 466.037 355.374 463.329 355.374C463.037 355.374 462.752 355.405 462.471 355.452C461.913 355.491 461.453 355.565 460.785 355.565C459.357 355.565 458.23 355.413 457.406 355.113C456.575 354.74 455.939 354.215 455.487 353.542C455.112 352.869 454.851 352.045 454.698 351.072C454.624 350.1 454.585 348.937 454.585 347.591V317.801H465.593C466.634 317.801 467.477 316.961 467.477 315.922V309.159C467.477 308.12 466.634 307.28 465.593 307.28H454.585V300.924C454.585 299.528 453.11 298.622 451.862 299.244L442.782 303.756C442.146 304.075 441.736 304.725 441.736 305.436V350.847C441.81 353.243 442.037 355.378 442.415 357.249C442.864 359.12 443.656 360.695 444.784 361.967C445.985 363.165 447.601 364.102 449.626 364.775C451.733 365.374 454.472 365.673 457.855 365.673C459.283 365.673 460.676 365.6 462.022 365.448C462.869 365.355 463.614 365.257 464.2 365.055C466.49 364.647 468.234 362.655 468.234 360.251L468.23 360.259ZM462.077 355.541C462.077 355.541 462.05 355.549 462.038 355.553C462.05 355.553 462.065 355.545 462.077 355.541ZM461.671 355.67C461.671 355.67 461.636 355.681 461.617 355.689C461.636 355.681 461.652 355.677 461.671 355.67ZM461.273 355.833C461.273 355.833 461.238 355.849 461.219 355.86C461.238 355.852 461.254 355.841 461.273 355.833ZM460.887 356.031C460.887 356.031 460.86 356.047 460.848 356.055C460.863 356.047 460.875 356.039 460.887 356.031ZM458.433 360.259C458.433 360.1 458.44 359.94 458.456 359.785C458.44 359.94 458.433 360.1 458.433 360.259C458.433 361.609 458.983 362.83 459.868 363.713C458.983 362.83 458.433 361.609 458.433 360.259ZM459.634 357.062C459.634 357.062 459.603 357.093 459.588 357.113C459.603 357.097 459.619 357.082 459.634 357.062ZM459.42 357.33C459.385 357.377 459.35 357.424 459.314 357.47C459.35 357.424 459.385 357.377 459.42 357.33ZM459.182 357.673C459.143 357.731 459.108 357.793 459.072 357.852C459.108 357.789 459.147 357.731 459.182 357.673ZM458.967 358.05C458.932 358.12 458.897 358.19 458.866 358.26C458.897 358.19 458.932 358.12 458.967 358.05ZM458.784 358.455C458.753 358.532 458.725 358.61 458.698 358.688C458.725 358.61 458.753 358.528 458.784 358.455ZM458.635 358.878C458.608 358.964 458.589 359.053 458.569 359.143C458.589 359.053 458.612 358.964 458.635 358.878ZM458.526 359.322C458.507 359.423 458.491 359.528 458.479 359.629C458.491 359.524 458.507 359.423 458.526 359.322ZM461.878 364.923C462.338 365.067 462.826 365.141 463.333 365.141C462.826 365.141 462.338 365.063 461.878 364.923ZM463.337 365.141C463.486 365.141 463.634 365.133 463.778 365.117C463.634 365.133 463.486 365.141 463.337 365.141Z" fill="white"/>
<path d="M280.837 299.769C282.175 299.769 283.104 299.995 284.372 300.446C285.827 300.878 287.478 300.613 287.903 299.159L289.721 292.959C290.022 291.936 289.698 290.788 288.762 290.279C287.927 289.824 287.029 289.528 285.687 289.198C283.642 288.672 282.214 288.412 279.889 288.412C273.407 288.412 268.405 290.224 264.882 294.048C261.659 297.548 260.586 301.558 260.457 307.198H253.66C252.411 307.198 251.397 308.206 251.397 309.454V315.467C251.397 316.712 252.407 317.723 253.66 317.723H260.445V362.056C260.445 363.301 261.456 364.312 262.708 364.312H271C272.249 364.312 273.263 363.305 273.263 362.056V317.712L272.994 309.832L273.263 317.712H283.818C283.857 317.708 283.892 317.712 283.931 317.712H283.943C286.857 317.712 289.218 315.359 289.218 312.453C289.218 309.548 286.857 307.194 283.943 307.194H283.931C283.892 307.194 283.857 307.198 283.818 307.198H272.904C273.009 304.903 273.435 303.558 274.609 302.243C276.018 300.594 278.098 299.769 280.845 299.769H280.837Z" fill="white"/>
<path fill-rule="evenodd" clip-rule="evenodd" d="M233.307 291.037C233.307 290.399 233.799 289.909 234.439 289.909H241.224C241.864 289.909 242.356 290.399 242.356 291.037V363.173C242.356 363.81 241.864 364.3 241.224 364.3H234.439C233.799 364.3 233.307 363.81 233.307 363.173V356.673C229.386 362.196 223.81 365.428 215.101 365.428C198.818 365.428 189.208 351.905 189.208 335.448C189.208 318.991 199.345 305.693 215.101 305.693C222.187 305.693 228.594 308.886 233.307 314.11V291.037ZM234.061 335.561C234.061 347.019 227.615 356.3 216.798 356.3C205.982 356.3 199.536 347.019 199.536 335.561C199.536 324.102 206.17 314.822 216.798 314.822C227.427 314.822 234.061 324.102 234.061 335.561V335.561Z" fill="white"/>
<path fill-rule="evenodd" clip-rule="evenodd" d="M101.387 365.428C116.804 365.428 129.278 353.445 129.278 335.561C129.278 317.677 116.804 305.693 101.387 305.693C85.971 305.693 73.4966 317.529 73.4966 335.561C73.4966 353.593 85.971 365.428 101.387 365.428ZM101.387 357.05C111.185 357.05 119.102 348.633 119.102 335.561C119.102 322.488 111.185 314.071 101.387 314.071C91.5898 314.071 83.6728 322.072 83.6728 335.561C83.6728 349.05 91.5898 357.05 101.387 357.05Z" fill="white"/>
<path d="M58.0449 291.037C58.0449 290.399 58.5366 289.909 59.1765 289.909H66.3365C66.9764 289.909 67.4681 290.399 67.4681 291.037V363.173C67.4681 363.81 66.9764 364.301 66.3365 364.301H59.1765C58.5366 364.301 58.0449 363.81 58.0449 363.173V291.037Z" fill="white"/>
<path d="M0 335.448C0 329.474 1.13156 324.25 3.39077 319.82C5.65388 315.312 8.77932 311.819 12.7749 309.376C16.8836 306.934 21.5191 305.693 26.7203 305.693C33.4668 305.693 39.0075 307.42 43.3425 310.878C47.2991 313.958 50.0499 318.167 51.56 323.39C51.8253 324.328 51.1073 325.23 50.128 325.23H43.3815C42.7026 325.23 42.1017 324.779 41.8754 324.102C40.857 321.096 39.1636 318.692 36.7132 316.887C34.0364 314.857 30.7198 313.845 26.7242 313.845C21.523 313.845 17.3401 315.763 14.1367 319.555C10.9332 323.274 9.349 328.61 9.349 335.487C9.349 342.364 10.9332 347.848 14.1367 351.644C17.3401 355.44 21.523 357.354 26.7242 357.354C30.7198 357.354 34.0755 356.377 36.7132 354.386C39.1245 352.62 40.8219 350.178 41.8754 347.058C42.1017 346.42 42.6675 345.969 43.3464 345.969H50.0538C51.0332 345.969 51.7512 346.871 51.4468 347.809C49.8626 352.881 47.1118 357.015 43.1552 360.209C38.7461 363.74 33.2444 365.467 26.6462 365.467C21.4449 365.467 16.8095 364.227 12.7398 361.784C8.81834 359.267 5.65388 355.771 3.39077 351.302C1.13156 346.794 0 341.496 0 335.448Z" fill="white"/>
<path d="M315.283 305.689C298.813 305.689 286.826 318.315 286.826 335.557C286.826 352.799 298.813 365.425 315.283 365.425C331.753 365.425 343.74 352.799 343.74 335.557C343.74 318.315 331.753 305.689 315.283 305.689V305.689ZM315.283 353.103C306.086 353.103 300.019 346.078 300.019 335.483C300.019 324.888 306.086 317.863 315.283 317.863C318.639 317.863 321.389 315.121 321.389 311.776C321.389 315.121 318.678 317.863 315.283 317.863C324.48 317.863 330.547 324.927 330.547 335.483C330.547 346.039 324.48 353.103 315.283 353.103Z" fill="white"/>
<path d="M379.356 305.689C379.255 305.689 379.157 305.701 379.056 305.705C379.118 305.701 379.177 305.689 379.243 305.689H378.751C377.019 305.689 375.361 305.954 373.738 306.44C372.118 306.965 370.608 307.681 369.215 308.657C367.822 309.559 366.538 310.687 365.446 312.037C364.615 313.013 363.901 314.102 363.335 315.23V309.069C363.335 308.019 362.504 307.191 361.45 307.191H352.406C351.352 307.191 350.521 308.019 350.521 309.069V362.422C350.521 363.472 351.352 364.301 352.406 364.301H361.45C362.504 364.301 363.335 363.472 363.335 362.422V334.732C363.335 332.476 363.561 330.411 364.014 328.497C364.467 326.58 365.181 324.892 366.238 323.499C367.331 322.033 368.727 320.87 370.46 320.042C372.192 319.213 373.929 318.427 376.793 318.427C377.433 318.427 378.073 318.466 378.751 318.466C378.779 318.466 378.806 318.466 378.837 318.466C378.213 318.4 377.624 318.233 377.07 317.984C377.776 318.291 378.545 318.462 379.352 318.462C382.669 318.462 385.385 315.608 385.385 312.076C385.385 308.544 382.708 305.689 379.352 305.689H379.356ZM376.625 317.762C376.699 317.801 376.769 317.84 376.843 317.875C376.769 317.84 376.695 317.801 376.625 317.762Z" fill="white"/>
<path d="M378.837 318.466C378.997 318.482 379.157 318.497 379.317 318.501C379.157 318.47 378.997 318.466 378.837 318.466Z" fill="white"/>
<path fill-rule="evenodd" clip-rule="evenodd" d="M135.311 309.073C135.311 308.023 136.142 307.194 137.195 307.194H142.471C143.524 307.194 144.355 308.023 144.355 309.073V345.327C144.355 350.1 145.6 352.204 147.711 354.343C149.822 356.448 153.1 357.124 156.795 357.124C159.733 357.124 162.261 356.673 164.372 355.771C166.557 354.868 168.368 353.593 169.8 351.901C171.232 350.248 172.289 348.295 172.964 346.113C173.604 344.122 173.983 342.017 174.096 339.765V309.073C174.096 308.023 174.927 307.194 175.98 307.194H181.256C182.309 307.194 183.14 308.023 183.14 309.073V362.422C183.14 363.472 182.309 364.301 181.256 364.301H175.98C174.927 364.301 174.096 363.472 174.096 362.422V355.623C172.098 358.929 169.612 361.411 166.631 363.064C163.467 364.717 159.733 365.545 155.437 365.545C151.593 365.545 148.39 365.055 145.826 364.079C143.263 363.029 141.191 361.562 139.607 359.645C138.023 357.766 136.895 355.51 136.216 352.959C135.611 350.329 135.311 348.525 135.311 345.744V309.073Z" fill="white"/>
<path d="M409.901 305.689C396.158 305.689 384.854 315.689 383.52 331.924C383.36 333.301 383.274 334.771 383.274 336.304C383.274 337.171 383.301 338.023 383.356 338.847C383.406 339.641 383.481 340.415 383.578 341.154C385.17 355.113 396.556 365.429 410.314 365.429C420.077 365.429 427.088 362.08 431.24 355.736C431.342 355.623 431.439 355.506 431.529 355.386L431.541 355.37C431.626 355.253 431.708 355.133 431.786 355.012C431.794 354.997 431.802 354.985 431.814 354.97C431.884 354.853 431.95 354.736 432.013 354.616C432.028 354.588 432.04 354.561 432.052 354.534C432.106 354.421 432.157 354.312 432.204 354.196C432.219 354.153 432.235 354.106 432.251 354.063C432.29 353.958 432.325 353.857 432.356 353.748C432.376 353.686 432.391 353.62 432.407 353.554C432.43 353.464 432.454 353.371 432.473 353.278C432.493 353.188 432.504 353.091 432.516 353.001C432.528 352.931 432.539 352.861 432.547 352.788C432.563 352.62 432.575 352.449 432.575 352.278C432.575 351.92 432.539 351.57 432.469 351.232C432.399 350.893 432.297 350.57 432.165 350.259C432.059 350.01 431.931 349.773 431.786 349.548C431.728 349.458 431.669 349.365 431.607 349.279C431.244 348.77 430.795 348.33 430.276 347.98C430.14 347.887 429.995 347.801 429.847 347.719C429.11 347.319 428.267 347.093 427.369 347.093C427.194 347.093 427.018 347.101 426.847 347.12C426.765 347.128 426.683 347.144 426.605 347.155C426.519 347.167 426.429 347.179 426.343 347.194C426.23 347.218 426.125 347.249 426.015 347.276C425.965 347.292 425.914 347.299 425.863 347.315C425.735 347.354 425.61 347.401 425.485 347.447C425.457 347.459 425.43 347.467 425.403 347.478C425.262 347.537 425.13 347.599 424.997 347.665C424.985 347.669 424.974 347.677 424.966 347.681C424.825 347.754 424.689 347.836 424.552 347.922C424.283 348.097 424.029 348.299 423.795 348.517H423.791L423.741 348.567C423.717 348.587 423.698 348.61 423.674 348.63L422.293 349.956C419.562 352.858 415.703 354.662 411.43 354.662C402.756 354.293 397.91 349.334 396.408 339.45C396.408 339.244 396.415 339.042 396.423 338.84C396.423 338.797 396.423 338.75 396.423 338.707H432.457C434.436 338.707 436.039 337.109 436.039 335.137V331.461C435.294 315.545 426.39 305.681 409.897 305.681L409.901 305.689ZM396.712 328.696C398.109 321.434 403.568 316.452 410.084 316.452C416.6 316.452 422.874 320.333 423.565 328.696H396.712Z" fill="white"/>
</g>
<defs>
<linearGradient id="paint0_linear_2055_5012" x1="92.43" y1="191.734" x2="227.076" y2="94.7516" gradientUnits="userSpaceOnUse">
<stop stop-color="white"/>
<stop offset="1" stop-color="white" stop-opacity="0.5"/>
</linearGradient>
<linearGradient id="paint1_linear_2055_5012" x1="246.87" y1="127.144" x2="224.898" y2="-0.0446304" gradientUnits="userSpaceOnUse">
<stop stop-color="white" stop-opacity="0.5"/>
<stop offset="1" stop-color="white"/>
</linearGradient>
<linearGradient id="paint2_linear_2055_5012" x1="304.785" y1="79.1375" x2="374.211" y2="219.893" gradientUnits="userSpaceOnUse">
<stop stop-color="white" stop-opacity="0.5"/>
<stop offset="1" stop-color="white"/>
</linearGradient>
<clipPath id="clip0_2055_5012">
<rect width="468.62" height="77.4017" fill="white" transform="translate(0 288.408)"/>
</clipPath>
</defs>
</svg>
