<svg width="830" height="142" viewBox="0 0 830 142" fill="none" xmlns="http://www.w3.org/2000/svg">
<ellipse cx="91.1883" cy="133.013" rx="8.94003" ry="8.98734" fill="#8B33FF"/>
<path d="M50.0642 124.025C32.2894 124.025 17.8801 109.54 17.8801 91.6709C17.8801 73.8021 32.2894 59.3165 50.0642 59.3165C67.839 59.3165 82.2483 73.8021 82.2483 91.6709C82.2483 96.6345 86.2509 100.658 91.1883 100.658C96.1258 100.658 100.128 96.6345 100.128 91.6709C100.128 63.8749 77.7139 41.3418 50.0642 41.3418C22.4145 41.3418 0 63.8749 0 91.6709C0 119.467 22.4145 142 50.0642 142C55.0016 142 59.0042 137.976 59.0042 133.013C59.0042 128.049 55.0016 124.025 50.0642 124.025Z" fill="url(#paint0_linear_2055_4761)"/>
<path d="M99.1435 81.6876C113.071 78.1278 123.372 65.4379 123.372 50.3291C123.372 32.4603 108.963 17.9747 91.1884 17.9747C76.1591 17.9747 63.536 28.3308 59.9949 42.3319C56.7851 41.6825 53.4643 41.3418 50.0642 41.3418C47.2501 41.3418 44.4902 41.5752 41.8026 42.0238C45.741 18.1798 66.3528 0 91.1884 0C118.838 0 141.253 22.5331 141.253 50.3291C141.253 78.1251 118.838 100.658 91.1884 100.658C96.1258 100.658 100.128 96.6345 100.128 91.6709C100.128 88.2528 99.7895 84.9144 99.1435 81.6876Z" fill="url(#paint1_linear_2055_4761)"/>
<path d="M140.268 60.3124C154.195 63.8722 164.497 76.5622 164.497 91.6709C164.497 109.54 150.087 124.025 132.312 124.025C127.375 124.025 123.372 128.049 123.372 133.013C123.372 137.976 127.375 142 132.312 142C159.962 142 182.377 119.467 182.377 91.6709C182.377 66.7039 164.293 45.9831 140.574 42.0238C141.02 44.7256 141.253 47.5001 141.253 50.3291C141.253 53.7471 140.914 57.0856 140.268 60.3124Z" fill="url(#paint2_linear_2055_4761)"/>
<ellipse cx="91.1883" cy="91.6709" rx="8.94003" ry="8.98734" fill="#8B33FF"/>
<path d="M823.767 125.96C820.323 125.96 817.534 123.17 817.534 119.725C817.534 116.657 819.752 114.11 822.675 113.594C821.965 113.644 821.38 113.738 820.531 113.738C818.715 113.738 817.281 113.544 816.234 113.162C815.177 112.686 814.368 112.016 813.792 111.157C813.316 110.298 812.983 109.245 812.789 108.004C812.695 106.763 812.646 105.279 812.646 103.561V65.5407H826.645C827.97 65.5407 829.042 64.4685 829.042 63.143V54.5103C829.042 53.1848 827.97 52.1126 826.645 52.1126H812.646V44.0011C812.646 42.2189 810.77 41.0623 809.182 41.8566L797.634 47.615C796.825 48.0221 796.304 48.8511 796.304 49.7596V107.717C796.398 110.774 796.686 113.5 797.167 115.888C797.738 118.275 798.745 120.286 800.179 121.909C801.708 123.438 803.762 124.634 806.338 125.493C809.018 126.258 812.502 126.64 816.804 126.64C818.621 126.64 820.392 126.546 822.104 126.352C823.181 126.233 824.129 126.109 824.873 125.851C824.516 125.915 824.149 125.955 823.767 125.955V125.96Z" fill="#1F1646"/>
<path d="M823.767 125.96C820.323 125.96 817.534 123.17 817.534 119.725C817.534 116.657 819.752 114.11 822.675 113.594C821.965 113.644 821.38 113.738 820.531 113.738C818.715 113.738 817.281 113.544 816.234 113.162C815.177 112.686 814.368 112.016 813.792 111.157C813.316 110.298 812.983 109.245 812.789 108.004C812.695 106.763 812.646 105.279 812.646 103.561V102.35H796.304V107.717C796.398 110.774 796.686 113.5 797.167 115.888C797.738 118.275 798.745 120.286 800.179 121.909C801.708 123.438 803.762 124.634 806.338 125.493C809.018 126.258 812.502 126.64 816.804 126.64C818.621 126.64 820.392 126.546 822.104 126.352C823.181 126.233 824.129 126.109 824.874 125.851C824.516 125.915 824.149 125.955 823.767 125.955V125.96Z" fill="url(#paint3_linear_2055_4761)"/>
<path d="M830 119.73C830 123.175 827.211 125.965 823.767 125.965C820.323 125.965 817.534 123.175 817.534 119.73C817.534 116.285 820.323 113.495 823.767 113.495C827.211 113.495 830 116.285 830 119.73Z" fill="#8041F4"/>
<path fill-rule="evenodd" clip-rule="evenodd" d="M581.561 52.0033C581.695 49.0794 582.236 47.3668 583.729 45.6839C585.521 43.5791 588.166 42.5267 591.66 42.5267C593.362 42.5267 594.543 42.8146 596.156 43.3905C598.007 43.9415 600.106 43.6039 600.647 41.7473L602.96 33.8344C603.342 32.5288 602.93 31.0644 601.739 30.4141C600.677 29.8333 599.535 29.456 597.828 29.034C595.228 28.3639 593.411 28.0312 590.454 28.0312C582.211 28.0312 575.849 30.3446 571.367 35.2244C567.268 39.6921 565.904 44.8102 565.74 52.0083H557.095C555.507 52.0083 554.217 53.294 554.217 54.8875V62.5622C554.217 64.1507 555.502 65.4414 557.095 65.4414H565.725V122.023C565.725 123.612 567.01 124.903 568.603 124.903H579.149C580.737 124.903 582.027 123.617 582.027 122.023V65.4265" fill="#1F1646"/>
<path d="M595.585 52.0034C595.536 52.0034 595.491 52.0083 595.441 52.0083H581.561L582.017 65.4265H595.441C595.491 65.4216 595.536 65.4265 595.585 65.4265C599.292 65.4265 602.295 62.4232 602.295 58.7149C602.295 55.0067 599.292 52.0034 595.585 52.0034V52.0034Z" fill="url(#paint4_linear_2055_4761)"/>
<path d="M602.31 58.7149C602.31 62.4232 599.307 65.4265 595.6 65.4265C591.893 65.4265 588.891 62.4232 588.891 58.7149C588.891 55.0067 591.893 52.0034 595.6 52.0034C599.307 52.0034 602.31 55.0067 602.31 58.7149V58.7149Z" fill="#8041F4"/>
<path fill-rule="evenodd" clip-rule="evenodd" d="M696.595 62.2643V54.4011C696.595 53.0607 695.537 52.0034 694.198 52.0034H682.694C681.354 52.0034 680.297 53.0607 680.297 54.4011V122.49C680.297 123.83 681.354 124.888 682.694 124.888H694.198C695.537 124.888 696.595 123.83 696.595 122.49V62.2643Z" fill="#1F1646"/>
<path d="M724.638 58.2384C724.638 62.7459 721.189 66.3896 716.966 66.3896C712.743 66.3896 709.294 62.7459 709.294 58.2384C709.294 53.7309 712.743 50.0872 716.966 50.0872C721.189 50.0872 724.638 53.7309 724.638 58.2384Z" fill="#8041F4"/>
<path fill-rule="evenodd" clip-rule="evenodd" d="M531.215 31.3821C531.215 30.568 531.84 29.9425 532.654 29.9425H541.284C542.098 29.9425 542.723 30.568 542.723 31.3821V123.448C542.723 124.262 542.098 124.888 541.284 124.888H532.654C531.84 124.888 531.215 124.262 531.215 123.448V115.153C526.227 122.202 519.136 126.327 508.059 126.327C487.35 126.327 475.127 109.067 475.127 88.0633C475.127 67.0598 488.02 50.0872 508.059 50.0872C517.071 50.0872 525.22 54.1628 531.215 60.8297V31.3821ZM532.173 88.2072C532.173 102.832 523.974 114.676 510.218 114.676C496.462 114.676 488.263 102.832 488.263 88.2072C488.263 73.5827 496.7 61.7382 510.218 61.7382C523.736 61.7382 532.173 73.5827 532.173 88.2072V88.2072Z" fill="#1F1646"/>
<path fill-rule="evenodd" clip-rule="evenodd" d="M363.433 126.327C383.041 126.327 398.906 111.033 398.906 88.2072C398.906 65.3818 383.041 50.0872 363.433 50.0872C343.826 50.0872 327.96 65.1932 327.96 88.2072C327.96 111.221 343.826 126.327 363.433 126.327ZM363.433 115.634C375.894 115.634 385.964 104.892 385.964 88.2072C385.964 71.5225 375.894 60.78 363.433 60.78C350.972 60.78 340.903 70.9914 340.903 88.2072C340.903 105.423 350.972 115.634 363.433 115.634Z" fill="#1F1646"/>
<path d="M308.308 31.3821C308.308 30.568 308.934 29.9425 309.748 29.9425H318.854C319.668 29.9425 320.293 30.568 320.293 31.3821V123.448C320.293 124.262 319.668 124.888 318.854 124.888H309.748C308.934 124.888 308.308 124.262 308.308 123.448V31.3821Z" fill="#1F1646"/>
<path d="M234.484 88.0632C234.484 80.4382 235.923 73.7713 238.797 68.1171C241.675 62.3636 245.65 57.9058 250.732 54.7882C255.958 51.6707 261.853 50.0872 268.468 50.0872C277.049 50.0872 284.096 52.2913 289.609 56.7044C294.641 60.6361 298.14 66.0073 300.06 72.6742C300.398 73.8706 299.485 75.0223 298.239 75.0223H289.659C288.795 75.0223 288.031 74.4465 287.743 73.5827C286.448 69.7454 284.294 66.6775 281.178 64.3741C277.773 61.7828 273.555 60.4921 268.473 60.4921C261.858 60.4921 256.538 62.9395 252.464 67.7795C248.39 72.5253 246.375 79.3362 246.375 88.1129C246.375 96.8896 248.39 103.889 252.464 108.734C256.538 113.579 261.858 116.022 268.473 116.022C273.555 116.022 277.823 114.776 281.178 112.234C284.245 109.98 286.403 106.863 287.743 102.881C288.031 102.067 288.751 101.491 289.614 101.491H298.145C299.39 101.491 300.304 102.643 299.917 103.839C297.902 110.313 294.403 115.59 289.371 119.665C283.763 124.173 276.766 126.377 268.374 126.377C261.759 126.377 255.863 124.793 250.687 121.676C245.7 118.464 241.675 114.001 238.797 108.297C235.923 102.544 234.484 95.7826 234.484 88.0632Z" fill="#1F1646"/>
<path fill-rule="evenodd" clip-rule="evenodd" d="M654.889 88.1079C654.889 101.581 647.172 110.596 635.475 110.596C623.778 110.596 616.061 101.63 616.061 88.1079C616.061 74.5855 623.778 65.6201 635.475 65.6201C631.207 65.6201 627.708 62.1204 627.708 57.8512C627.708 53.582 631.207 50.0822 635.475 50.0822C614.528 50.0822 599.282 66.196 599.282 88.2023C599.282 110.209 614.528 126.322 635.475 126.322C656.422 126.322 671.667 110.209 671.667 88.2023L654.889 88.1079V88.1079Z" fill="#1F1646"/>
<path fill-rule="evenodd" clip-rule="evenodd" d="M671.667 88.2072C671.667 66.196 656.422 50.0872 635.475 50.0872C639.743 50.0872 643.241 53.5869 643.241 57.8561C643.241 62.1253 639.792 65.6251 635.475 65.6251C647.172 65.6251 654.889 74.6401 654.889 88.1129L671.667 88.2072V88.2072Z" fill="url(#paint5_linear_2055_4761)"/>
<path fill-rule="evenodd" clip-rule="evenodd" d="M635.475 65.6201C631.207 65.6201 627.708 62.1204 627.708 57.8512C627.708 53.582 631.207 50.0822 635.475 50.0822" fill="#1F1646"/>
<path d="M643.241 57.8512C643.241 62.1204 639.743 65.6201 635.475 65.6201C631.207 65.6201 627.708 62.1204 627.708 57.8512C627.708 53.582 631.207 50.0822 635.475 50.0822C639.743 50.0822 643.241 53.582 643.241 57.8512V57.8512Z" fill="#8041F4"/>
<path fill-rule="evenodd" clip-rule="evenodd" d="M709.344 58.2384C709.344 53.8252 712.654 50.2311 716.822 50.0872H716.197C713.994 50.0872 711.884 50.4247 709.82 51.0452C707.76 51.7154 705.84 52.6288 704.068 53.8748C702.297 55.0265 700.664 56.4661 699.274 58.1887C698.217 59.4347 697.309 60.8247 696.59 62.2643V87.1498C696.59 84.2706 696.877 81.6346 697.453 79.1922C698.029 76.7498 698.937 74.5904 700.282 72.8132C701.671 70.9417 703.448 69.4574 705.651 68.4001C707.855 67.3427 710.063 66.3399 713.706 66.3399C714.52 66.3399 715.333 66.3896 716.197 66.3896C716.435 66.3896 716.678 66.3896 716.917 66.4392C712.698 66.3449 709.344 62.7012 709.344 58.2384V58.2384Z" fill="url(#paint6_linear_2055_4761)"/>
<path fill-rule="evenodd" clip-rule="evenodd" d="M406.578 54.4011C406.578 53.0607 407.635 52.0034 408.975 52.0034H415.685C417.025 52.0034 418.082 53.0607 418.082 54.4011V100.672C418.082 106.763 419.665 109.449 422.35 112.179C425.034 114.865 429.203 115.729 433.903 115.729C437.639 115.729 440.855 115.153 443.54 114.001C446.319 112.849 448.622 111.221 450.443 109.062C452.264 106.952 453.609 104.46 454.468 101.675C455.282 99.1334 455.763 96.4478 455.907 93.5735V54.4011C455.907 53.0607 456.964 52.0034 458.304 52.0034H465.013C466.353 52.0034 467.41 53.0607 467.41 54.4011V122.49C467.41 123.83 466.353 124.888 465.013 124.888H458.304C456.964 124.888 455.907 123.83 455.907 122.49V113.813C453.366 118.032 450.205 121.199 446.413 123.309C442.389 125.419 437.639 126.476 432.176 126.476C427.287 126.476 423.213 125.851 419.953 124.605C416.692 123.264 414.057 121.393 412.042 118.945C410.027 116.548 408.593 113.669 407.73 110.412C406.96 107.056 406.578 104.753 406.578 101.203V54.4011Z" fill="#1F1646"/>
<path d="M755.814 50.0822C738.335 50.0822 723.958 62.8452 722.261 83.5657C722.058 85.323 721.949 87.1995 721.949 89.1554C721.949 90.2624 721.983 91.3495 722.053 92.402H738.678C738.678 92.3473 738.678 92.2878 738.678 92.2332H784.507C787.024 92.2332 789.063 90.1929 789.063 87.676V82.9849C788.115 62.6714 776.791 50.0822 755.814 50.0822V50.0822ZM739.04 79.4454C740.817 70.1773 747.759 63.8181 756.047 63.8181C764.334 63.8181 772.314 68.7724 773.193 79.4454H739.04Z" fill="#1F1646"/>
<path d="M722.058 92.4019C722.122 93.4146 722.217 94.4025 722.341 95.3457C724.365 113.162 738.846 126.327 756.345 126.327C768.761 126.327 777.679 122.053 782.959 113.956C784.011 112.785 784.651 111.241 784.651 109.543C784.651 105.89 781.689 102.926 778.036 102.926C776.27 102.926 774.672 103.621 773.485 104.748L773.421 104.812C773.396 104.837 773.366 104.867 773.337 104.892L771.58 106.585C768.106 110.288 763.198 112.591 757.764 112.591C746.732 112.12 740.568 105.79 738.658 93.1764C738.658 92.9133 738.668 92.6551 738.678 92.397H722.053L722.058 92.4019Z" fill="url(#paint7_linear_2055_4761)"/>
<path d="M784.656 109.543C784.656 113.197 781.694 116.161 778.041 116.161C774.389 116.161 771.426 113.197 771.426 109.543C771.426 105.89 774.389 102.926 778.041 102.926C781.694 102.926 784.656 105.89 784.656 109.543Z" fill="#8041F4"/>
<defs>
<linearGradient id="paint0_linear_2055_4761" x1="10.8348" y1="125.474" x2="90.4009" y2="56.5935" gradientUnits="userSpaceOnUse">
<stop stop-color="#8B33FF"/>
<stop offset="1" stop-color="#AA99FF"/>
</linearGradient>
<linearGradient id="paint1_linear_2055_4761" x1="154.305" y1="18.6937" x2="41.6832" y2="61.2401" gradientUnits="userSpaceOnUse">
<stop stop-color="#00E0D9"/>
<stop offset="1" stop-color="#0059F5"/>
</linearGradient>
<linearGradient id="paint2_linear_2055_4761" x1="157.702" y1="46.5543" x2="93.5391" y2="133.882" gradientUnits="userSpaceOnUse">
<stop stop-color="#009FF5"/>
<stop offset="1" stop-color="#8B33FF"/>
</linearGradient>
<linearGradient id="paint3_linear_2055_4761" x1="821.802" y1="130.12" x2="800.559" y2="104.814" gradientUnits="userSpaceOnUse">
<stop offset="0.22" stop-color="#752DDA"/>
<stop offset="0.65" stop-color="#1D1843"/>
</linearGradient>
<linearGradient id="paint4_linear_2055_4761" x1="581.561" y1="58.7149" x2="602.295" y2="58.7149" gradientUnits="userSpaceOnUse">
<stop stop-color="#1D1843"/>
<stop offset="0.05" stop-color="#21194A"/>
<stop offset="0.13" stop-color="#2C1B5E"/>
<stop offset="0.22" stop-color="#3F207E"/>
<stop offset="0.32" stop-color="#5A26AB"/>
<stop offset="0.41" stop-color="#752DDA"/>
</linearGradient>
<linearGradient id="paint5_linear_2055_4761" x1="630.899" y1="62.6664" x2="675.11" y2="78.7514" gradientUnits="userSpaceOnUse">
<stop offset="0.24" stop-color="#752DDA"/>
<stop offset="0.25" stop-color="#712CD3"/>
<stop offset="0.38" stop-color="#5324A0"/>
<stop offset="0.49" stop-color="#3B1F77"/>
<stop offset="0.6" stop-color="#2A1B5A"/>
<stop offset="0.69" stop-color="#201849"/>
<stop offset="0.75" stop-color="#1D1843"/>
</linearGradient>
<linearGradient id="paint6_linear_2055_4761" x1="691.567" y1="73.3295" x2="721.34" y2="62.4938" gradientUnits="userSpaceOnUse">
<stop offset="0.27" stop-color="#1D1843"/>
<stop offset="0.33" stop-color="#21194A"/>
<stop offset="0.41" stop-color="#2C1B5E"/>
<stop offset="0.51" stop-color="#3F207E"/>
<stop offset="0.62" stop-color="#5A26AB"/>
<stop offset="0.72" stop-color="#752DDA"/>
</linearGradient>
<linearGradient id="paint7_linear_2055_4761" x1="727.393" y1="113.996" x2="781.285" y2="97.5245" gradientUnits="userSpaceOnUse">
<stop offset="0.41" stop-color="#1D1843"/>
<stop offset="0.47" stop-color="#261A53"/>
<stop offset="0.58" stop-color="#3F207E"/>
<stop offset="0.74" stop-color="#6829C4"/>
<stop offset="0.78" stop-color="#752DDA"/>
</linearGradient>
</defs>
</svg>
