<svg width="831" height="142" viewBox="0 0 831 142" fill="none" xmlns="http://www.w3.org/2000/svg">
<ellipse cx="91.1883" cy="133.013" rx="8.94003" ry="8.98734" fill="white"/>
<path d="M50.0642 124.025C32.2894 124.025 17.8801 109.54 17.8801 91.6709C17.8801 73.802 32.2894 59.3165 50.0642 59.3165C67.839 59.3165 82.2483 73.802 82.2483 91.6709C82.2483 96.6345 86.2509 100.658 91.1883 100.658C96.1258 100.658 100.128 96.6345 100.128 91.6709C100.128 63.8749 77.7139 41.3418 50.0642 41.3418C22.4145 41.3418 0 63.8749 0 91.6709C0 119.467 22.4145 142 50.0642 142C55.0016 142 59.0042 137.976 59.0042 133.013C59.0042 128.049 55.0016 124.025 50.0642 124.025Z" fill="url(#paint0_linear_2055_4790)"/>
<path d="M99.1436 81.6876C113.071 78.1277 123.373 65.4378 123.373 50.3291C123.373 32.4602 108.963 17.9747 91.1885 17.9747C76.1593 17.9747 63.5361 28.3308 59.9951 42.3318C56.7853 41.6825 53.4644 41.3417 50.0643 41.3417C47.2502 41.3417 44.4903 41.5752 41.8027 42.0238C45.7411 18.1798 66.3529 0 91.1885 0C118.838 0 141.253 22.5331 141.253 50.3291C141.253 78.1251 118.838 100.658 91.1885 100.658C96.1259 100.658 100.129 96.6344 100.129 91.6708C100.129 88.2528 99.7896 84.9143 99.1436 81.6876Z" fill="url(#paint1_linear_2055_4790)"/>
<path d="M140.268 60.3125C154.195 63.8724 164.497 76.5623 164.497 91.671C164.497 109.54 150.087 124.025 132.312 124.025C127.375 124.025 123.372 128.049 123.372 133.013C123.372 137.976 127.375 142 132.312 142C159.962 142 182.377 119.467 182.377 91.671C182.377 66.704 164.293 45.9832 140.574 42.0239C141.02 44.7257 141.253 47.5002 141.253 50.3292C141.253 53.7473 140.914 57.0857 140.268 60.3125Z" fill="url(#paint2_linear_2055_4790)"/>
<ellipse cx="91.1883" cy="91.6708" rx="8.94003" ry="8.98734" fill="white"/>
<path d="M829.601 119.726C829.601 116.281 826.814 113.491 823.372 113.491C823 113.491 822.638 113.531 822.281 113.591C821.572 113.64 820.987 113.735 820.139 113.735C818.324 113.735 816.891 113.541 815.844 113.159C814.788 112.682 813.98 112.012 813.404 111.153C812.928 110.295 812.596 109.242 812.402 108.001C812.308 106.76 812.259 105.276 812.259 103.558V65.5392H826.249C827.573 65.5392 828.644 64.467 828.644 63.1416V54.5092C828.644 53.1838 827.573 52.1116 826.249 52.1116H812.259V44.0004C812.259 42.2184 810.384 41.0618 808.797 41.856L797.257 47.6142C796.448 48.0213 795.928 48.8503 795.928 49.7587V107.713C796.022 110.771 796.309 113.496 796.791 115.884C797.361 118.272 798.368 120.282 799.801 121.905C801.328 123.434 803.381 124.631 805.955 125.489C808.633 126.254 812.115 126.636 816.415 126.636C818.23 126.636 820 126.542 821.711 126.348C822.787 126.229 823.735 126.105 824.478 125.847C827.39 125.326 829.606 122.784 829.606 119.716L829.601 119.726ZM821.781 113.705C821.781 113.705 821.746 113.715 821.731 113.72C821.746 113.72 821.766 113.71 821.781 113.705ZM821.265 113.869C821.265 113.869 821.22 113.884 821.195 113.893C821.22 113.884 821.24 113.879 821.265 113.869ZM820.759 114.077C820.759 114.077 820.714 114.097 820.689 114.112C820.714 114.102 820.734 114.087 820.759 114.077ZM820.268 114.33C820.268 114.33 820.233 114.35 820.218 114.36C820.238 114.35 820.253 114.34 820.268 114.33ZM817.149 119.726C817.149 119.523 817.158 119.319 817.178 119.121C817.158 119.319 817.149 119.523 817.149 119.726C817.149 121.449 817.848 123.007 818.974 124.134C817.848 123.007 817.149 121.449 817.149 119.726ZM818.676 115.646C818.676 115.646 818.636 115.685 818.616 115.71C818.636 115.69 818.656 115.671 818.676 115.646ZM818.403 115.988C818.359 116.048 818.314 116.107 818.269 116.167C818.314 116.107 818.359 116.048 818.403 115.988ZM818.101 116.425C818.051 116.5 818.007 116.579 817.962 116.653C818.007 116.574 818.056 116.5 818.101 116.425ZM817.828 116.907C817.783 116.996 817.739 117.085 817.699 117.175C817.739 117.085 817.783 116.996 817.828 116.907ZM817.595 117.423C817.555 117.522 817.52 117.621 817.486 117.721C817.52 117.621 817.555 117.517 817.595 117.423ZM817.406 117.964C817.372 118.073 817.347 118.187 817.322 118.301C817.347 118.187 817.377 118.073 817.406 117.964ZM817.268 118.53C817.243 118.659 817.223 118.793 817.208 118.922C817.223 118.788 817.243 118.659 817.268 118.53ZM821.528 125.678C822.113 125.862 822.733 125.956 823.377 125.956C822.733 125.956 822.113 125.857 821.528 125.678ZM823.382 125.956C823.571 125.956 823.759 125.946 823.943 125.926C823.759 125.946 823.571 125.956 823.382 125.956Z" fill="white"/>
<path d="M591.426 42.5262C593.127 42.5262 594.307 42.8141 595.919 43.39C597.768 43.941 599.866 43.6034 600.407 41.7469L602.718 33.8343C603.1 32.5287 602.688 31.0644 601.498 30.4141C600.437 29.8333 599.296 29.456 597.59 29.0341C594.991 28.364 593.176 28.0314 590.22 28.0314C581.983 28.0314 575.625 30.3446 571.147 35.2242C567.051 39.6918 565.687 44.8097 565.523 52.0075H556.884C555.297 52.0075 554.008 53.2931 554.008 54.8866V62.5609C554.008 64.1494 555.292 65.44 556.884 65.44H565.508V122.02C565.508 123.608 566.793 124.899 568.385 124.899H578.923C580.51 124.899 581.8 123.613 581.8 122.02V65.4251L581.457 55.3681L581.8 65.4251H595.214C595.264 65.4202 595.309 65.4251 595.358 65.4251H595.373C599.078 65.4251 602.078 62.4219 602.078 58.7138C602.078 55.0057 599.078 52.0025 595.373 52.0025H595.358C595.309 52.0025 595.264 52.0075 595.214 52.0075H581.343C581.477 49.0787 582.018 47.3612 583.511 45.6833C585.301 43.5786 587.944 42.5262 591.435 42.5262H591.426Z" fill="white"/>
<path fill-rule="evenodd" clip-rule="evenodd" d="M531.016 31.3821C531.016 30.568 531.641 29.9425 532.454 29.9425H541.079C541.892 29.9425 542.517 30.568 542.517 31.3821V123.444C542.517 124.258 541.892 124.884 541.079 124.884H532.454C531.641 124.884 531.016 124.258 531.016 123.444V115.149C526.032 122.198 518.945 126.323 507.876 126.323C487.181 126.323 474.966 109.064 474.966 88.0609C474.966 67.0583 487.85 50.0864 507.876 50.0864C516.882 50.0864 525.025 54.1618 531.016 60.8285V31.3821ZM531.973 88.2049C531.973 102.829 523.781 114.673 510.033 114.673C496.286 114.673 488.093 102.829 488.093 88.2049C488.093 73.581 496.524 61.7369 510.033 61.7369C523.542 61.7369 531.973 73.581 531.973 88.2049V88.2049Z" fill="white"/>
<path fill-rule="evenodd" clip-rule="evenodd" d="M363.347 126.323C382.941 126.323 398.796 111.029 398.796 88.2048C398.796 65.3804 382.941 50.0863 363.347 50.0863C343.753 50.0863 327.898 65.1917 327.898 88.2048C327.898 111.218 343.753 126.323 363.347 126.323ZM363.347 115.631C375.8 115.631 385.862 104.889 385.862 88.2048C385.862 71.5208 375.8 60.7787 363.347 60.7787C350.894 60.7787 340.832 70.9897 340.832 88.2048C340.832 105.42 350.894 115.631 363.347 115.631Z" fill="white"/>
<path d="M308.259 31.3821C308.259 30.568 308.884 29.9425 309.697 29.9425H318.797C319.611 29.9425 320.236 30.568 320.236 31.3821V123.444C320.236 124.258 319.611 124.884 318.797 124.884H309.697C308.884 124.884 308.259 124.258 308.259 123.444V31.3821Z" fill="white"/>
<path d="M234.484 88.0608C234.484 80.4361 235.922 73.7695 238.794 68.1155C241.67 62.3623 245.643 57.9046 250.721 54.7872C255.943 51.6698 261.835 50.0863 268.446 50.0863C277.02 50.0863 284.062 52.2903 289.572 56.7033C294.601 60.6348 298.097 66.0058 300.017 72.6725C300.354 73.8688 299.441 75.0204 298.196 75.0204H289.622C288.759 75.0204 287.995 74.4446 287.708 73.5809C286.413 69.7437 284.261 66.676 281.146 64.3727C277.744 61.7815 273.529 60.4908 268.451 60.4908C261.84 60.4908 256.523 62.9381 252.452 67.778C248.38 72.5235 246.367 79.3341 246.367 88.1105C246.367 96.8868 248.38 103.886 252.452 108.731C256.523 113.576 261.84 116.018 268.451 116.018C273.529 116.018 277.794 114.772 281.146 112.231C284.211 109.977 286.369 106.859 287.708 102.878C287.995 102.064 288.714 101.488 289.577 101.488H298.102C299.347 101.488 300.26 102.64 299.873 103.836C297.859 110.309 294.363 115.586 289.334 119.662C283.73 124.169 276.738 126.373 268.351 126.373C261.741 126.373 255.849 124.789 250.676 121.672C245.692 118.46 241.67 113.998 238.794 108.294C235.922 102.541 234.484 95.7798 234.484 88.0608Z" fill="white"/>
<path d="M635.206 50.0814C614.273 50.0814 599.038 66.1945 599.038 88.1999C599.038 110.205 614.273 126.318 635.206 126.318C656.14 126.318 671.375 110.205 671.375 88.1999C671.375 66.1945 656.14 50.0814 635.206 50.0814V50.0814ZM635.206 110.592C623.517 110.592 615.806 101.628 615.806 88.1056C615.806 74.5837 623.517 65.6187 635.206 65.6187C639.471 65.6187 642.968 62.1191 642.968 57.8501C642.968 62.1191 639.521 65.6187 635.206 65.6187C646.895 65.6187 654.607 74.6333 654.607 88.1056C654.607 101.578 646.895 110.592 635.206 110.592Z" fill="white"/>
<path d="M716.643 50.0814C716.514 50.0814 716.39 50.0963 716.261 50.1013C716.341 50.0963 716.415 50.0814 716.499 50.0814H715.874C713.673 50.0814 711.565 50.419 709.502 51.0395C707.444 51.7096 705.524 52.623 703.754 53.8689C701.983 55.0206 700.352 56.4601 698.963 58.1827C697.907 59.4286 696.999 60.8185 696.28 62.2581V54.3951C696.28 53.0549 695.224 51.9975 693.885 51.9975H682.389C681.05 51.9975 679.994 53.0549 679.994 54.3951V122.486C679.994 123.826 681.05 124.884 682.389 124.884H693.885C695.224 124.884 696.28 123.826 696.28 122.486V87.1475C696.28 84.2684 696.568 81.6325 697.143 79.1903C697.718 76.743 698.626 74.5886 699.97 72.8115C701.359 70.9401 703.134 69.4559 705.336 68.3985C707.538 67.3412 709.745 66.3385 713.385 66.3385C714.198 66.3385 715.012 66.3881 715.874 66.3881C715.909 66.3881 715.944 66.3881 715.984 66.3881C715.19 66.3037 714.441 66.0903 713.737 65.7726C714.635 66.1648 715.612 66.3832 716.638 66.3832C720.854 66.3832 724.305 62.7396 724.305 58.2323C724.305 53.725 720.903 50.0814 716.638 50.0814H716.643ZM713.172 65.4896C713.266 65.5393 713.355 65.5889 713.449 65.6336C713.355 65.5889 713.261 65.5393 713.172 65.4896Z" fill="white"/>
<path d="M715.984 66.3882C716.187 66.408 716.39 66.4279 716.594 66.4329C716.39 66.3931 716.187 66.3882 715.984 66.3882Z" fill="white"/>
<path fill-rule="evenodd" clip-rule="evenodd" d="M406.463 54.4001C406.463 53.0598 407.519 52.0024 408.858 52.0024H415.563C416.902 52.0024 417.959 53.0598 417.959 54.4001V100.669C417.959 106.76 419.541 109.446 422.224 112.176C424.907 114.861 429.073 115.725 433.769 115.725C437.503 115.725 440.717 115.149 443.4 113.998C446.177 112.846 448.478 111.218 450.298 109.059C452.119 106.949 453.463 104.457 454.32 101.672C455.134 99.1306 455.615 96.4451 455.759 93.5709V54.4001C455.759 53.0598 456.815 52.0024 458.154 52.0024H464.859C466.198 52.0024 467.254 53.0598 467.254 54.4001V122.486C467.254 123.826 466.198 124.884 464.859 124.884H458.154C456.815 124.884 455.759 123.826 455.759 122.486V113.809C453.22 118.028 450.06 121.196 446.272 123.305C442.25 125.415 437.503 126.472 432.043 126.472C427.158 126.472 423.087 125.847 419.828 124.601C416.57 123.261 413.937 121.389 411.923 118.942C409.91 116.544 408.477 113.665 407.614 110.409C406.845 107.053 406.463 104.75 406.463 101.201V54.4001Z" fill="white"/>
<path d="M755.465 50.0813C737.998 50.0813 723.631 62.8438 721.935 83.5635C721.731 85.3207 721.622 87.1971 721.622 89.1529C721.622 90.2599 721.657 91.347 721.726 92.3994C721.791 93.412 721.885 94.3998 722.009 95.343C724.033 113.159 738.504 126.323 755.99 126.323C768.398 126.323 777.31 122.049 782.587 113.953C782.716 113.809 782.84 113.66 782.954 113.506L782.969 113.486C783.078 113.337 783.182 113.184 783.281 113.03C783.291 113.01 783.301 112.995 783.316 112.975C783.405 112.826 783.49 112.677 783.569 112.523C783.589 112.489 783.604 112.454 783.619 112.419C783.688 112.275 783.753 112.136 783.812 111.987C783.832 111.933 783.852 111.873 783.872 111.818C783.921 111.684 783.966 111.555 784.005 111.416C784.03 111.337 784.05 111.253 784.07 111.168C784.1 111.054 784.129 110.935 784.154 110.816C784.179 110.702 784.194 110.577 784.209 110.463C784.224 110.374 784.239 110.285 784.248 110.19C784.268 109.977 784.283 109.758 784.283 109.54C784.283 109.083 784.239 108.637 784.149 108.205C784.06 107.773 783.931 107.361 783.762 106.964C783.629 106.646 783.465 106.343 783.281 106.055C783.207 105.941 783.133 105.822 783.053 105.713C782.592 105.062 782.022 104.502 781.362 104.055C781.189 103.936 781.005 103.826 780.817 103.722C779.879 103.211 778.808 102.923 777.667 102.923C777.444 102.923 777.221 102.933 777.003 102.958C776.899 102.968 776.795 102.988 776.695 103.002C776.586 103.017 776.472 103.032 776.363 103.052C776.219 103.082 776.085 103.122 775.947 103.156C775.882 103.176 775.818 103.186 775.753 103.206C775.59 103.256 775.431 103.315 775.272 103.375C775.237 103.39 775.203 103.4 775.168 103.414C774.989 103.489 774.821 103.568 774.652 103.653C774.637 103.658 774.622 103.668 774.613 103.673C774.434 103.767 774.26 103.871 774.087 103.98C773.745 104.204 773.422 104.462 773.125 104.74H773.12L773.055 104.804C773.026 104.829 773.001 104.859 772.971 104.884L771.215 106.577C767.744 110.28 762.839 112.583 757.409 112.583C746.384 112.111 740.225 105.782 738.315 93.1688C738.315 92.9057 738.325 92.6476 738.335 92.3894C738.335 92.3348 738.335 92.2753 738.335 92.2207H784.134C786.649 92.2207 788.687 90.1805 788.687 87.6637V82.9727C787.74 62.6601 776.423 50.0714 755.46 50.0714L755.465 50.0813ZM738.702 79.4433C740.478 70.1756 747.416 63.8167 755.698 63.8167C763.98 63.8167 771.954 68.7708 772.832 79.4433H738.702Z" fill="white"/>
<defs>
<linearGradient id="paint0_linear_2055_4790" x1="4.64882" y1="118.453" x2="87.55" y2="59.3712" gradientUnits="userSpaceOnUse">
<stop stop-color="white"/>
<stop offset="1" stop-color="white" stop-opacity="0.5"/>
</linearGradient>
<linearGradient id="paint1_linear_2055_4790" x1="99.0556" y1="78.5493" x2="85.3454" y2="0.0211922" gradientUnits="userSpaceOnUse">
<stop stop-color="white" stop-opacity="0.5"/>
<stop offset="1" stop-color="white"/>
</linearGradient>
<linearGradient id="paint2_linear_2055_4790" x1="134.458" y1="48.8912" x2="177.626" y2="135.487" gradientUnits="userSpaceOnUse">
<stop stop-color="white" stop-opacity="0.5"/>
<stop offset="1" stop-color="white"/>
</linearGradient>
</defs>
</svg>
