<svg width="468" height="366" viewBox="0 0 468 366" fill="none" xmlns="http://www.w3.org/2000/svg">
<ellipse cx="234" cy="215.301" rx="14.625" ry="14.5473" fill="#8B33FF"/>
<path d="M166.725 200.753C137.647 200.753 114.075 177.306 114.075 148.383C114.075 119.46 137.647 96.0125 166.725 96.0125C195.803 96.0125 219.375 119.46 219.375 148.383C219.375 156.417 225.923 162.93 234 162.93C242.077 162.93 248.625 156.417 248.625 148.383C248.625 103.391 211.957 66.9178 166.725 66.9178C121.493 66.9178 84.825 103.391 84.825 148.383C84.825 193.375 121.493 229.848 166.725 229.848C174.802 229.848 181.35 223.335 181.35 215.301C181.35 207.266 174.802 200.753 166.725 200.753Z" fill="url(#paint0_linear_2055_4877)"/>
<path d="M247.014 132.223C269.798 126.461 286.65 105.921 286.65 81.4651C286.65 52.5417 263.078 29.0947 234 29.0947C209.414 29.0947 188.764 45.8577 182.971 68.5204C177.72 67.4693 172.287 66.9178 166.725 66.9178C162.121 66.9178 157.606 67.2956 153.21 68.0218C159.653 29.4267 193.372 0 234 0C279.232 0 315.9 36.4732 315.9 81.4651C315.9 126.457 279.232 162.93 234 162.93C242.077 162.93 248.625 156.417 248.625 148.383C248.625 142.85 248.071 137.446 247.014 132.223Z" fill="url(#paint1_linear_2055_4877)"/>
<path d="M314.289 97.6246C337.073 103.387 353.925 123.927 353.925 148.383C353.925 177.306 330.353 200.753 301.275 200.753C293.198 200.753 286.65 207.266 286.65 215.301C286.65 223.335 293.198 229.848 301.275 229.848C346.507 229.848 383.175 193.375 383.175 148.383C383.175 107.97 353.591 74.4304 314.79 68.0218C315.52 72.395 315.9 76.886 315.9 81.4651C315.9 86.9978 315.346 92.4016 314.289 97.6246Z" fill="url(#paint2_linear_2055_4877)"/>
<ellipse cx="234" cy="148.383" rx="14.625" ry="14.5473" fill="#8B33FF"/>
<path d="M463.102 365.144C460.395 365.144 458.203 362.958 458.203 360.258C458.203 357.855 459.946 355.859 462.244 355.455C461.686 355.493 461.226 355.567 460.559 355.567C459.131 355.567 458.004 355.416 457.181 355.116C456.351 354.743 455.715 354.218 455.263 353.545C454.888 352.872 454.627 352.047 454.475 351.075C454.401 350.102 454.362 348.939 454.362 347.594V317.802H465.364C466.405 317.802 467.247 316.962 467.247 315.924V309.159C467.247 308.121 466.405 307.281 465.364 307.281H454.362V300.925C454.362 299.529 452.887 298.622 451.639 299.245L442.564 303.757C441.929 304.076 441.519 304.725 441.519 305.437V350.849C441.593 353.245 441.819 355.381 442.198 357.252C442.646 359.123 443.438 360.698 444.565 361.97C445.766 363.168 447.381 364.105 449.405 364.778C451.511 365.377 454.249 365.677 457.63 365.677C459.057 365.677 460.45 365.603 461.795 365.451C462.641 365.358 463.386 365.26 463.971 365.058C463.69 365.109 463.402 365.14 463.102 365.14V365.144Z" fill="#1F1646"/>
<path d="M463.102 365.144C460.395 365.144 458.203 362.958 458.203 360.258C458.203 357.854 459.946 355.859 462.244 355.455C461.686 355.493 461.226 355.567 460.559 355.567C459.131 355.567 458.004 355.416 457.181 355.116C456.351 354.743 455.715 354.218 455.263 353.545C454.888 352.872 454.627 352.047 454.475 351.075C454.401 350.102 454.362 348.939 454.362 347.593V346.644H441.519V350.849C441.593 353.245 441.819 355.381 442.198 357.252C442.646 359.123 443.438 360.698 444.565 361.97C445.766 363.168 447.381 364.105 449.405 364.778C451.511 365.377 454.249 365.677 457.63 365.677C459.057 365.677 460.45 365.603 461.795 365.451C462.641 365.358 463.386 365.26 463.971 365.058C463.69 365.109 463.402 365.14 463.102 365.14V365.144Z" fill="url(#paint3_linear_2055_4877)"/>
<path d="M468 360.262C468 362.962 465.808 365.148 463.102 365.148C460.395 365.148 458.203 362.962 458.203 360.262C458.203 357.563 460.395 355.377 463.102 355.377C465.808 355.377 468 357.563 468 360.262Z" fill="#8041F4"/>
<path fill-rule="evenodd" clip-rule="evenodd" d="M272.758 307.195C272.863 304.904 273.289 303.562 274.462 302.244C275.87 300.594 277.949 299.77 280.695 299.77C282.032 299.77 282.961 299.995 284.228 300.447C285.683 300.878 287.332 300.614 287.758 299.159L289.575 292.959C289.875 291.936 289.552 290.788 288.616 290.279C287.781 289.824 286.884 289.528 285.542 289.198C283.499 288.672 282.071 288.412 279.747 288.412C273.269 288.412 268.269 290.224 264.748 294.048C261.526 297.549 260.454 301.559 260.325 307.199H253.531C252.283 307.199 251.269 308.207 251.269 309.455V315.469C251.269 316.713 252.279 317.725 253.531 317.725H260.313V362.059C260.313 363.304 261.323 364.315 262.575 364.315H270.863C272.111 364.315 273.125 363.308 273.125 362.059V317.713" fill="#1F1646"/>
<path d="M283.78 307.195C283.741 307.195 283.705 307.199 283.666 307.199H272.758L273.117 317.713H283.666C283.705 317.709 283.741 317.713 283.78 317.713C286.693 317.713 289.052 315.36 289.052 312.454C289.052 309.548 286.693 307.195 283.78 307.195V307.195Z" fill="url(#paint4_linear_2055_4877)"/>
<path d="M289.064 312.454C289.064 315.36 286.705 317.713 283.791 317.713C280.878 317.713 278.519 315.36 278.519 312.454C278.519 309.548 280.878 307.195 283.791 307.195C286.705 307.195 289.064 309.548 289.064 312.454V312.454Z" fill="#8041F4"/>
<path fill-rule="evenodd" clip-rule="evenodd" d="M363.16 315.235V309.074C363.16 308.024 362.329 307.195 361.276 307.195H352.236C351.183 307.195 350.353 308.024 350.353 309.074V362.425C350.353 363.475 351.183 364.304 352.236 364.304H361.276C362.329 364.304 363.16 363.475 363.16 362.425V315.235Z" fill="#1F1646"/>
<path d="M385.199 312.081C385.199 315.612 382.489 318.467 379.17 318.467C375.851 318.467 373.14 315.612 373.14 312.081C373.14 308.549 375.851 305.694 379.17 305.694C382.489 305.694 385.199 308.549 385.199 312.081Z" fill="#8041F4"/>
<path fill-rule="evenodd" clip-rule="evenodd" d="M233.193 291.037C233.193 290.4 233.684 289.909 234.324 289.909H241.106C241.745 289.909 242.237 290.4 242.237 291.037V363.176C242.237 363.814 241.745 364.304 241.106 364.304H234.324C233.684 364.304 233.193 363.814 233.193 363.176V356.676C229.273 362.199 223.7 365.432 214.995 365.432C198.721 365.432 189.115 351.907 189.115 335.45C189.115 318.993 199.247 305.694 214.995 305.694C222.078 305.694 228.482 308.887 233.193 314.111V291.037ZM233.945 335.563C233.945 347.022 227.503 356.303 216.692 356.303C205.881 356.303 199.438 347.022 199.438 335.563C199.438 324.104 206.068 314.823 216.692 314.823C227.315 314.823 233.945 324.104 233.945 335.563V335.563Z" fill="#1F1646"/>
<path fill-rule="evenodd" clip-rule="evenodd" d="M101.338 365.432C116.746 365.432 129.215 353.447 129.215 335.563C129.215 317.678 116.746 305.694 101.338 305.694C85.9287 305.694 73.4604 317.53 73.4604 335.563C73.4604 353.595 85.9287 365.432 101.338 365.432ZM101.338 357.053C111.13 357.053 119.044 348.636 119.044 335.563C119.044 322.489 111.13 314.072 101.338 314.072C91.5447 314.072 83.6316 322.073 83.6316 335.563C83.6316 349.052 91.5447 357.053 101.338 357.053Z" fill="#1F1646"/>
<path d="M58.0164 291.037C58.0164 290.4 58.5078 289.909 59.1474 289.909H66.3039C66.9435 289.909 67.4349 290.4 67.4349 291.037V363.176C67.4349 363.814 66.9435 364.304 66.3039 364.304H59.1474C58.5078 364.304 58.0164 363.814 58.0164 363.176V291.037Z" fill="#1F1646"/>
<path d="M0 335.45C0 329.475 1.131 324.251 3.3891 319.821C5.6511 315.313 8.775 311.82 12.7686 309.377C16.8753 306.935 21.5085 305.694 26.7072 305.694C33.4503 305.694 38.9883 307.421 43.3212 310.879C47.2758 313.959 50.0253 318.168 51.5346 323.392C51.7998 324.329 51.0822 325.232 50.1033 325.232H43.3602C42.6816 325.232 42.081 324.78 41.8548 324.104C40.8369 321.097 39.1443 318.693 36.6951 316.888C34.0197 314.858 30.7047 313.847 26.7111 313.847C21.5124 313.847 17.3316 315.764 14.1297 319.557C10.9278 323.275 9.3444 328.612 9.3444 335.489C9.3444 342.366 10.9278 347.85 14.1297 351.647C17.3316 355.443 21.5124 357.357 26.7111 357.357C30.7047 357.357 34.0587 356.38 36.6951 354.389C39.1053 352.623 40.8018 350.18 41.8548 347.061C42.081 346.423 42.6465 345.971 43.3251 345.971H50.0292C51.0081 345.971 51.7257 346.874 51.4215 347.811C49.8381 352.883 47.0886 357.018 43.134 360.212C38.727 363.743 33.228 365.47 26.6331 365.47C21.4344 365.47 16.8012 364.23 12.7335 361.787C8.814 359.27 5.6511 355.773 3.3891 351.304C1.131 346.796 0 341.498 0 335.45Z" fill="#1F1646"/>
<path fill-rule="evenodd" clip-rule="evenodd" d="M330.385 335.485C330.385 346.041 324.32 353.105 315.128 353.105C305.936 353.105 299.871 346.08 299.871 335.485C299.871 324.889 305.936 317.865 315.128 317.865C311.774 317.865 309.024 315.122 309.024 311.777C309.024 308.432 311.774 305.69 315.128 305.69C298.666 305.69 286.685 318.316 286.685 335.559C286.685 352.802 298.666 365.428 315.128 365.428C331.59 365.428 343.571 352.802 343.571 335.559L330.385 335.485V335.485Z" fill="#1F1646"/>
<path fill-rule="evenodd" clip-rule="evenodd" d="M343.57 335.563C343.57 318.316 331.59 305.694 315.128 305.694C318.482 305.694 321.231 308.436 321.231 311.781C321.231 315.126 318.521 317.868 315.128 317.868C324.32 317.868 330.385 324.932 330.385 335.489L343.57 335.563V335.563Z" fill="url(#paint5_linear_2055_4877)"/>
<path fill-rule="evenodd" clip-rule="evenodd" d="M315.128 317.865C311.774 317.865 309.024 315.122 309.024 311.777C309.024 308.432 311.774 305.69 315.128 305.69" fill="#1F1646"/>
<path d="M321.231 311.777C321.231 315.122 318.482 317.865 315.128 317.865C311.774 317.865 309.024 315.122 309.024 311.777C309.024 308.432 311.774 305.69 315.128 305.69C318.482 305.69 321.231 308.432 321.231 311.777V311.777Z" fill="#8041F4"/>
<path fill-rule="evenodd" clip-rule="evenodd" d="M373.179 312.081C373.179 308.623 375.781 305.807 379.057 305.694H378.565C376.834 305.694 375.176 305.958 373.554 306.444C371.935 306.97 370.426 307.685 369.034 308.662C367.641 309.564 366.358 310.692 365.266 312.042C364.435 313.018 363.722 314.107 363.156 315.235V334.734C363.156 332.478 363.382 330.413 363.835 328.499C364.287 326.585 365.001 324.893 366.058 323.501C367.15 322.034 368.546 320.871 370.278 320.043C372.009 319.214 373.745 318.429 376.607 318.429C377.247 318.429 377.887 318.467 378.565 318.467C378.752 318.467 378.943 318.467 379.131 318.506C375.816 318.432 373.179 315.577 373.179 312.081V312.081Z" fill="url(#paint6_linear_2055_4877)"/>
<path fill-rule="evenodd" clip-rule="evenodd" d="M135.244 309.074C135.244 308.024 136.075 307.195 137.128 307.195H142.401C143.454 307.195 144.284 308.024 144.284 309.074V345.33C144.284 350.102 145.528 352.207 147.638 354.346C149.748 356.45 153.024 357.127 156.718 357.127C159.654 357.127 162.181 356.676 164.291 355.774C166.475 354.871 168.285 353.595 169.716 351.903C171.148 350.25 172.204 348.298 172.879 346.115C173.519 344.124 173.897 342.02 174.01 339.767V309.074C174.01 308.024 174.841 307.195 175.894 307.195H181.167C182.22 307.195 183.05 308.024 183.05 309.074V362.425C183.05 363.475 182.22 364.304 181.167 364.304H175.894C174.841 364.304 174.01 363.475 174.01 362.425V355.626C172.013 358.932 169.529 361.414 166.549 363.067C163.387 364.72 159.654 365.548 155.36 365.548C151.519 365.548 148.317 365.058 145.755 364.082C143.192 363.032 141.122 361.565 139.538 359.648C137.955 357.769 136.828 355.513 136.149 352.961C135.545 350.332 135.244 348.527 135.244 345.746V309.074Z" fill="#1F1646"/>
<path d="M409.699 305.69C395.963 305.69 384.665 315.69 383.331 331.926C383.171 333.303 383.085 334.773 383.085 336.306C383.085 337.173 383.113 338.025 383.167 338.849H396.232C396.232 338.807 396.232 338.76 396.232 338.717H432.249C434.226 338.717 435.829 337.119 435.829 335.146V331.471C435.084 315.554 426.184 305.69 409.699 305.69V305.69ZM396.517 328.697C397.913 321.435 403.369 316.453 409.882 316.453C416.395 316.453 422.666 320.335 423.357 328.697H396.517Z" fill="#1F1646"/>
<path d="M383.171 338.849C383.222 339.643 383.296 340.417 383.393 341.156C384.985 355.116 396.365 365.432 410.116 365.432C419.874 365.432 426.882 362.083 431.032 355.739C431.859 354.821 432.362 353.611 432.362 352.281C432.362 349.418 430.034 347.096 427.163 347.096C425.775 347.096 424.519 347.64 423.587 348.523L423.536 348.574C423.517 348.593 423.493 348.616 423.47 348.636L422.089 349.962C419.359 352.864 415.502 354.669 411.232 354.669C402.562 354.299 397.718 349.34 396.217 339.456C396.217 339.25 396.224 339.048 396.232 338.846H383.167L383.171 338.849Z" fill="url(#paint7_linear_2055_4877)"/>
<path d="M432.366 352.281C432.366 355.143 430.037 357.465 427.167 357.465C424.297 357.465 421.968 355.143 421.968 352.281C421.968 349.418 424.297 347.096 427.167 347.096C430.037 347.096 432.366 349.418 432.366 352.281Z" fill="#8041F4"/>
<defs>
<linearGradient id="paint0_linear_2055_4877" x1="102.55" y1="203.098" x2="231.528" y2="90.2516" gradientUnits="userSpaceOnUse">
<stop stop-color="#8B33FF"/>
<stop offset="1" stop-color="#AA99FF"/>
</linearGradient>
<linearGradient id="paint1_linear_2055_4877" x1="337.252" y1="30.2585" x2="153.506" y2="100.414" gradientUnits="userSpaceOnUse">
<stop stop-color="#00E0D9"/>
<stop offset="1" stop-color="#0059F5"/>
</linearGradient>
<linearGradient id="paint2_linear_2055_4877" x1="342.81" y1="75.3551" x2="239.286" y2="217.756" gradientUnits="userSpaceOnUse">
<stop stop-color="#009FF5"/>
<stop offset="1" stop-color="#8B33FF"/>
</linearGradient>
<linearGradient id="paint3_linear_2055_4877" x1="461.557" y1="368.403" x2="444.921" y2="348.526" gradientUnits="userSpaceOnUse">
<stop offset="0.22" stop-color="#752DDA"/>
<stop offset="0.65" stop-color="#1D1843"/>
</linearGradient>
<linearGradient id="paint4_linear_2055_4877" x1="272.758" y1="312.454" x2="289.052" y2="312.454" gradientUnits="userSpaceOnUse">
<stop stop-color="#1D1843"/>
<stop offset="0.05" stop-color="#21194A"/>
<stop offset="0.13" stop-color="#2C1B5E"/>
<stop offset="0.22" stop-color="#3F207E"/>
<stop offset="0.32" stop-color="#5A26AB"/>
<stop offset="0.41" stop-color="#752DDA"/>
</linearGradient>
<linearGradient id="paint5_linear_2055_4877" x1="311.532" y1="315.55" x2="346.252" y2="328.22" gradientUnits="userSpaceOnUse">
<stop offset="0.24" stop-color="#752DDA"/>
<stop offset="0.25" stop-color="#712CD3"/>
<stop offset="0.38" stop-color="#5324A0"/>
<stop offset="0.49" stop-color="#3B1F77"/>
<stop offset="0.6" stop-color="#2A1B5A"/>
<stop offset="0.69" stop-color="#201849"/>
<stop offset="0.75" stop-color="#1D1843"/>
</linearGradient>
<linearGradient id="paint6_linear_2055_4877" x1="359.209" y1="323.905" x2="382.591" y2="315.37" gradientUnits="userSpaceOnUse">
<stop offset="0.27" stop-color="#1D1843"/>
<stop offset="0.33" stop-color="#21194A"/>
<stop offset="0.41" stop-color="#2C1B5E"/>
<stop offset="0.51" stop-color="#3F207E"/>
<stop offset="0.62" stop-color="#5A26AB"/>
<stop offset="0.72" stop-color="#752DDA"/>
</linearGradient>
<linearGradient id="paint7_linear_2055_4877" x1="387.364" y1="355.77" x2="429.694" y2="342.793" gradientUnits="userSpaceOnUse">
<stop offset="0.41" stop-color="#1D1843"/>
<stop offset="0.47" stop-color="#261A53"/>
<stop offset="0.58" stop-color="#3F207E"/>
<stop offset="0.74" stop-color="#6829C4"/>
<stop offset="0.78" stop-color="#752DDA"/>
</linearGradient>
</defs>
</svg>
