<svg width="1202" height="200" viewBox="0 0 1202 200" fill="none" xmlns="http://www.w3.org/2000/svg">
<path d="M1201 185.658C1201 178.683 1195.37 173.035 1188.43 173.035C1187.68 173.035 1186.95 173.116 1186.23 173.236C1184.8 173.337 1183.61 173.528 1181.9 173.528C1178.24 173.528 1175.35 173.136 1173.24 172.362C1171.1 171.397 1169.47 170.04 1168.31 168.302C1167.35 166.563 1166.68 164.432 1166.29 161.92C1166.1 159.407 1166 156.402 1166 152.925V75.9498H1194.23C1196.91 75.9498 1199.07 73.7789 1199.07 71.0955V53.6181C1199.07 50.9347 1196.91 48.7638 1194.23 48.7638H1166V32.3417C1166 28.7337 1162.22 26.392 1159.01 28L1135.72 39.6583C1134.09 40.4824 1133.04 42.1608 1133.04 44V161.337C1133.23 167.528 1133.81 173.045 1134.78 177.879C1135.93 182.714 1137.97 186.784 1140.86 190.07C1143.94 193.166 1148.09 195.588 1153.28 197.327C1158.68 198.874 1165.71 199.648 1174.39 199.648C1178.05 199.648 1181.62 199.457 1185.08 199.065C1187.25 198.824 1189.16 198.573 1190.66 198.05C1196.54 196.995 1201.01 191.849 1201.01 185.638L1201 185.658ZM1185.22 173.467C1185.22 173.467 1185.15 173.487 1185.12 173.497C1185.15 173.497 1185.19 173.477 1185.22 173.467ZM1184.18 173.799C1184.18 173.799 1184.09 173.829 1184.04 173.849C1184.09 173.829 1184.13 173.819 1184.18 173.799ZM1183.15 174.221C1183.15 174.221 1183.06 174.261 1183.01 174.291C1183.06 174.271 1183.1 174.241 1183.15 174.221ZM1182.16 174.734C1182.16 174.734 1182.09 174.774 1182.06 174.794C1182.1 174.774 1182.13 174.754 1182.16 174.734ZM1175.87 185.658C1175.87 185.246 1175.89 184.834 1175.93 184.432C1175.89 184.834 1175.87 185.246 1175.87 185.658C1175.87 189.146 1177.28 192.302 1179.55 194.583C1177.28 192.302 1175.87 189.146 1175.87 185.658ZM1178.95 177.397C1178.95 177.397 1178.87 177.477 1178.83 177.528C1178.87 177.487 1178.91 177.447 1178.95 177.397ZM1178.4 178.09C1178.31 178.211 1178.22 178.332 1178.13 178.452C1178.22 178.332 1178.31 178.211 1178.4 178.09ZM1177.79 178.975C1177.69 179.126 1177.6 179.286 1177.51 179.437C1177.6 179.276 1177.7 179.126 1177.79 178.975ZM1177.24 179.95C1177.15 180.131 1177.06 180.312 1176.98 180.492C1177.06 180.312 1177.15 180.131 1177.24 179.95ZM1176.77 180.995C1176.69 181.196 1176.62 181.397 1176.55 181.598C1176.62 181.397 1176.69 181.186 1176.77 180.995ZM1176.39 182.09C1176.32 182.312 1176.27 182.543 1176.22 182.774C1176.27 182.543 1176.33 182.312 1176.39 182.09ZM1176.11 183.236C1176.06 183.498 1176.02 183.769 1175.99 184.03C1176.02 183.759 1176.06 183.498 1176.11 183.236ZM1184.71 197.709C1185.89 198.08 1187.14 198.271 1188.44 198.271C1187.14 198.271 1185.89 198.07 1184.71 197.709ZM1188.45 198.271C1188.83 198.271 1189.21 198.251 1189.58 198.211C1189.21 198.251 1188.83 198.271 1188.45 198.271Z" fill="#1F1646"/>
<path d="M720.339 29.3568C723.772 29.3568 726.154 29.9397 729.407 31.1055C733.14 32.2211 737.374 31.5377 738.464 27.7789L743.128 11.7588C743.899 9.11558 743.068 6.15076 740.666 4.83418C738.525 3.6583 736.223 2.89448 732.78 2.04021C727.535 0.683422 723.872 0.0100555 717.907 0.0100555C701.284 0.0100555 688.453 4.69347 679.415 14.5729C671.148 23.6181 668.396 33.9799 668.066 48.5528H650.631C647.429 48.5528 644.827 51.1558 644.827 54.3819V69.9196C644.827 73.1357 647.419 75.7488 650.631 75.7488H668.036V190.302C668.036 193.518 670.628 196.131 673.841 196.131H695.108C698.311 196.131 700.913 193.528 700.913 190.302V75.7186L700.223 55.3568L700.913 75.7186H727.986C728.086 75.7085 728.176 75.7186 728.276 75.7186H728.306C735.782 75.7186 741.837 69.6382 741.837 62.1307C741.837 54.6231 735.782 48.5427 728.306 48.5427H728.276C728.176 48.5427 728.086 48.5528 727.986 48.5528H699.992C700.263 42.6231 701.354 39.1457 704.366 35.7488C707.979 31.4874 713.314 29.3568 720.359 29.3568H720.339Z" fill="#1F1646"/>
<path fill-rule="evenodd" clip-rule="evenodd" d="M598.428 6.79397C598.428 5.14573 599.689 3.87939 601.33 3.87939H618.735C620.376 3.87939 621.637 5.14573 621.637 6.79397V193.186C621.637 194.834 620.376 196.1 618.735 196.1H601.33C599.689 196.1 598.428 194.834 598.428 193.186V176.392C588.37 190.663 574.068 199.015 551.729 199.015C509.964 199.015 485.314 164.07 485.314 121.548C485.314 79.0251 511.315 44.6633 551.729 44.6633C569.904 44.6633 586.338 52.9146 598.428 66.4121V6.79397ZM600.36 121.839C600.36 151.447 583.826 175.427 556.083 175.427C528.34 175.427 511.806 151.447 511.806 121.839C511.806 92.2312 528.82 68.2513 556.083 68.2513C583.345 68.2513 600.36 92.2312 600.36 121.839V121.839Z" fill="#1F1646"/>
<path fill-rule="evenodd" clip-rule="evenodd" d="M260.056 199.015C299.599 199.015 331.596 168.05 331.596 121.839C331.596 75.6281 299.599 44.6633 260.056 44.6633C220.513 44.6633 188.517 75.2462 188.517 121.839C188.517 168.432 220.513 199.015 260.056 199.015ZM260.056 177.367C285.187 177.367 305.494 155.618 305.494 121.839C305.494 88.0603 285.187 66.3116 260.056 66.3116C234.925 66.3116 214.619 86.9849 214.619 121.839C214.619 156.693 234.925 177.367 260.056 177.367Z" fill="#1F1646"/>
<path d="M148.884 6.79397C148.884 5.14573 150.145 3.87939 151.786 3.87939H170.151C171.793 3.87939 173.054 5.14573 173.054 6.79397V193.186C173.054 194.834 171.793 196.1 170.151 196.1H151.786C150.145 196.1 148.884 194.834 148.884 193.186V6.79397Z" fill="#1F1646"/>
<path d="M0 121.548C0 106.111 2.90241 92.6131 8.69724 81.1658C14.5021 69.5176 22.5187 60.4925 32.7673 54.1809C43.306 47.8693 55.1959 44.6633 68.537 44.6633C85.8414 44.6633 100.053 49.1256 111.172 58.0603C121.321 66.0201 128.377 76.8945 132.25 90.392C132.931 92.8141 131.089 95.1457 128.577 95.1457H111.273C109.531 95.1457 107.99 93.9799 107.409 92.2312C104.797 84.4623 100.454 78.2513 94.1683 73.5879C87.3026 68.3417 78.7956 65.7286 68.547 65.7286C55.2059 65.7286 44.477 70.6834 36.2602 80.4824C28.0433 90.0905 23.98 103.879 23.98 121.648C23.98 139.417 28.0433 153.588 36.2602 163.397C44.477 173.206 55.2059 178.151 68.547 178.151C78.7956 178.151 87.4027 175.628 94.1683 170.482C100.353 165.92 104.707 159.608 107.409 151.548C107.99 149.899 109.441 148.734 111.182 148.734H128.387C130.899 148.734 132.74 151.065 131.96 153.487C127.896 166.593 120.841 177.276 110.692 185.528C99.3827 194.653 85.2709 199.116 68.3469 199.116C55.0058 199.116 43.1159 195.91 32.6772 189.598C22.6188 183.095 14.5021 174.06 8.69724 162.513C2.90241 150.864 0 137.176 0 121.548Z" fill="#1F1646"/>
<path d="M808.693 44.6533C766.448 44.6533 735.702 77.2764 735.702 121.829C735.702 166.382 766.448 199.005 808.693 199.005C850.938 199.005 881.684 166.382 881.684 121.829C881.684 77.2764 850.938 44.6533 808.693 44.6533V44.6533ZM808.693 167.166C785.103 167.166 769.54 149.015 769.54 121.638C769.54 94.2613 785.103 76.1105 808.693 76.1105C817.3 76.1105 824.356 69.0251 824.356 60.3819C824.356 69.0251 817.4 76.1105 808.693 76.1105C832.282 76.1105 847.845 94.3618 847.845 121.638C847.845 148.915 832.282 167.166 808.693 167.166Z" fill="#1F1646"/>
<path d="M973.04 44.6533C972.779 44.6533 972.529 44.6834 972.269 44.6935C972.429 44.6834 972.579 44.6533 972.749 44.6533H971.488C967.045 44.6533 962.791 45.3367 958.628 46.593C954.474 47.9497 950.601 49.799 947.028 52.3216C943.455 54.6533 940.162 57.5678 937.36 61.0553C935.228 63.5779 933.397 66.392 931.945 69.3065V53.3869C931.945 50.6734 929.814 48.5327 927.111 48.5327H903.912C901.21 48.5327 899.078 50.6734 899.078 53.3869V191.246C899.078 193.96 901.21 196.101 903.912 196.101H927.111C929.814 196.101 931.945 193.96 931.945 191.246V119.698C931.945 113.869 932.526 108.533 933.687 103.588C934.848 98.6332 936.679 94.2714 939.392 90.6734C942.194 86.8844 945.777 83.8794 950.221 81.7387C954.664 79.598 959.118 77.5678 966.464 77.5678C968.106 77.5678 969.747 77.6683 971.488 77.6683C971.558 77.6683 971.628 77.6683 971.709 77.6683C970.107 77.4975 968.596 77.0653 967.175 76.4221C968.986 77.2161 970.958 77.6583 973.03 77.6583C981.537 77.6583 988.503 70.2814 988.503 61.1558C988.503 52.0301 981.637 44.6533 973.03 44.6533H973.04ZM966.034 75.8492C966.224 75.9497 966.404 76.0502 966.594 76.1407C966.404 76.0502 966.214 75.9497 966.034 75.8492Z" fill="#1F1646"/>
<path d="M971.708 77.6683C972.119 77.7085 972.529 77.7487 972.94 77.7588C972.529 77.6784 972.119 77.6683 971.708 77.6683Z" fill="#1F1646"/>
<path fill-rule="evenodd" clip-rule="evenodd" d="M347.069 53.397C347.069 50.6834 349.201 48.5427 351.903 48.5427H365.434C368.136 48.5427 370.268 50.6834 370.268 53.397V147.075C370.268 159.407 373.461 164.844 378.875 170.372C384.29 175.809 392.697 177.558 402.175 177.558C409.711 177.558 416.196 176.392 421.611 174.06C427.216 171.729 431.859 168.432 435.532 164.06C439.206 159.789 441.918 154.744 443.649 149.106C445.291 143.96 446.261 138.523 446.552 132.704V53.397C446.552 50.6834 448.683 48.5427 451.386 48.5427H464.917C467.619 48.5427 469.751 50.6834 469.751 53.397V191.246C469.751 193.96 467.619 196.1 464.917 196.1H451.386C448.683 196.1 446.552 193.96 446.552 191.246V173.678C441.427 182.221 435.052 188.633 427.406 192.905C419.289 197.176 409.711 199.317 398.692 199.317C388.834 199.317 380.617 198.05 374.041 195.528C367.466 192.814 362.151 189.025 358.088 184.07C354.025 179.216 351.132 173.387 349.391 166.794C347.839 160 347.069 155.337 347.069 148.151V53.397Z" fill="#1F1646"/>
<path d="M1051.38 44.6533C1016.14 44.6533 987.141 70.4925 983.718 112.442C983.308 116 983.088 119.799 983.088 123.759C983.088 126 983.158 128.201 983.298 130.332C983.428 132.382 983.618 134.382 983.869 136.291C987.952 172.362 1017.16 199.015 1052.45 199.015C1077.49 199.015 1095.47 190.362 1106.12 173.97C1106.38 173.678 1106.63 173.377 1106.86 173.065L1106.89 173.025C1107.11 172.724 1107.32 172.412 1107.52 172.101C1107.54 172.06 1107.56 172.03 1107.59 171.99C1107.77 171.688 1107.94 171.387 1108.1 171.075C1108.14 171.005 1108.17 170.935 1108.2 170.864C1108.34 170.573 1108.47 170.291 1108.59 169.99C1108.63 169.879 1108.67 169.759 1108.71 169.648C1108.81 169.377 1108.9 169.116 1108.98 168.834C1109.03 168.673 1109.07 168.503 1109.11 168.332C1109.17 168.101 1109.23 167.859 1109.28 167.618C1109.33 167.387 1109.36 167.136 1109.39 166.905C1109.42 166.724 1109.45 166.543 1109.47 166.352C1109.51 165.92 1109.54 165.477 1109.54 165.035C1109.54 164.111 1109.45 163.206 1109.27 162.332C1109.09 161.457 1108.83 160.623 1108.49 159.819C1108.22 159.176 1107.89 158.563 1107.52 157.98C1107.37 157.749 1107.22 157.508 1107.06 157.286C1106.13 155.97 1104.98 154.834 1103.65 153.93C1103.3 153.688 1102.93 153.467 1102.55 153.256C1100.66 152.221 1098.49 151.638 1096.19 151.638C1095.74 151.638 1095.29 151.658 1094.85 151.709C1094.64 151.729 1094.43 151.769 1094.23 151.799C1094.01 151.829 1093.78 151.859 1093.56 151.899C1093.27 151.96 1093 152.04 1092.72 152.111C1092.59 152.151 1092.46 152.171 1092.33 152.211C1092 152.312 1091.68 152.432 1091.36 152.553C1091.29 152.583 1091.22 152.603 1091.15 152.633C1090.79 152.784 1090.45 152.945 1090.11 153.116C1090.08 153.126 1090.05 153.146 1090.03 153.156C1089.67 153.347 1089.32 153.558 1088.97 153.779C1088.28 154.231 1087.62 154.754 1087.02 155.317H1087.01L1086.88 155.447C1086.82 155.497 1086.77 155.558 1086.71 155.608L1083.17 159.035C1076.17 166.533 1066.27 171.196 1055.31 171.196C1033.06 170.241 1020.63 157.427 1016.78 131.889C1016.78 131.357 1016.8 130.834 1016.82 130.312C1016.82 130.201 1016.82 130.08 1016.82 129.97H1109.24C1114.32 129.97 1118.43 125.839 1118.43 120.744V111.246C1116.52 70.1206 1093.68 44.6332 1051.37 44.6332L1051.38 44.6533ZM1017.56 104.101C1021.14 85.3367 1035.14 72.4623 1051.86 72.4623C1068.57 72.4623 1084.66 82.4925 1086.43 104.101H1017.56Z" fill="#1F1646"/>
</svg>
