<svg width="1202" height="200" viewBox="0 0 1202 200" fill="none" xmlns="http://www.w3.org/2000/svg">
<path d="M1189.42 198.271C1182.47 198.271 1176.84 192.623 1176.84 185.648C1176.84 179.437 1181.32 174.281 1187.22 173.236C1185.78 173.337 1184.6 173.528 1182.89 173.528C1179.22 173.528 1176.33 173.136 1174.21 172.362C1172.08 171.397 1170.45 170.04 1169.29 168.302C1168.32 166.563 1167.65 164.432 1167.26 161.92C1167.07 159.407 1166.97 156.402 1166.97 152.925V75.9498H1195.23C1197.9 75.9498 1200.07 73.7789 1200.07 71.0955V53.6181C1200.07 50.9347 1197.9 48.7638 1195.23 48.7638H1166.97V32.3417C1166.97 28.7337 1163.19 26.392 1159.98 28L1136.67 39.6583C1135.04 40.4824 1133.99 42.1608 1133.99 44V161.337C1134.18 167.528 1134.76 173.045 1135.73 177.879C1136.88 182.714 1138.91 186.784 1141.81 190.07C1144.89 193.166 1149.04 195.588 1154.24 197.327C1159.65 198.874 1166.68 199.648 1175.37 199.648C1179.03 199.648 1182.61 199.457 1186.06 199.065C1188.24 198.824 1190.15 198.573 1191.65 198.05C1190.93 198.181 1190.19 198.261 1189.42 198.261V198.271Z" fill="#1F1646"/>
<path d="M1189.42 198.271C1182.47 198.271 1176.84 192.623 1176.84 185.648C1176.84 179.437 1181.32 174.281 1187.22 173.236C1185.78 173.337 1184.6 173.528 1182.89 173.528C1179.22 173.528 1176.33 173.136 1174.21 172.362C1172.08 171.397 1170.45 170.04 1169.29 168.302C1168.32 166.563 1167.65 164.432 1167.26 161.92C1167.07 159.407 1166.97 156.402 1166.97 152.925V150.472H1133.99V161.337C1134.18 167.528 1134.76 173.045 1135.73 177.879C1136.88 182.714 1138.91 186.784 1141.81 190.07C1144.89 193.166 1149.04 195.588 1154.24 197.327C1159.65 198.874 1166.68 199.648 1175.37 199.648C1179.03 199.648 1182.61 199.457 1186.06 199.065C1188.24 198.824 1190.15 198.573 1191.65 198.05C1190.93 198.181 1190.19 198.261 1189.42 198.261V198.271Z" fill="url(#paint0_linear_2058_5149)"/>
<path d="M1202 185.658C1202 192.633 1196.37 198.281 1189.42 198.281C1182.47 198.281 1176.84 192.633 1176.84 185.658C1176.84 178.683 1182.47 173.035 1189.42 173.035C1196.37 173.035 1202 178.683 1202 185.658Z" fill="#8041F4"/>
<path fill-rule="evenodd" clip-rule="evenodd" d="M700.546 48.5427C700.816 42.6231 701.908 39.1558 704.923 35.7488C708.539 31.4875 713.878 29.3568 720.929 29.3568C724.365 29.3568 726.749 29.9397 730.005 31.1055C733.741 32.2211 737.978 31.5377 739.07 27.7789L743.737 11.7588C744.509 9.1156 743.677 6.15077 741.273 4.83419C739.13 3.65831 736.826 2.89449 733.38 2.04022C728.131 0.683438 724.465 0.0100708 718.495 0.0100708C701.858 0.0100708 689.016 4.69349 679.971 14.5729C671.698 23.6181 668.943 33.9799 668.612 48.5528H651.163C647.958 48.5528 645.354 51.1558 645.354 54.3819V69.9196C645.354 73.1357 647.948 75.7488 651.163 75.7488H668.582V190.302C668.582 193.518 671.177 196.131 674.392 196.131H695.677C698.883 196.131 701.487 193.528 701.487 190.302V75.7186" fill="#1F1646"/>
<path d="M728.853 48.5427C728.753 48.5427 728.662 48.5528 728.562 48.5528H700.546L701.467 75.7186H728.562C728.662 75.7086 728.753 75.7186 728.853 75.7186C736.335 75.7186 742.395 69.6382 742.395 62.1307C742.395 54.6231 736.335 48.5427 728.853 48.5427V48.5427Z" fill="url(#paint1_linear_2058_5149)"/>
<path d="M742.425 62.1307C742.425 69.6382 736.365 75.7186 728.883 75.7186C721.4 75.7186 715.34 69.6382 715.34 62.1307C715.34 54.6231 721.4 48.5427 728.883 48.5427C736.365 48.5427 742.425 54.6231 742.425 62.1307V62.1307Z" fill="#8041F4"/>
<path fill-rule="evenodd" clip-rule="evenodd" d="M932.732 69.3166V53.397C932.732 50.6834 930.598 48.5427 927.894 48.5427H904.675C901.971 48.5427 899.837 50.6834 899.837 53.397V191.246C899.837 193.96 901.971 196.101 904.675 196.101H927.894C930.598 196.101 932.732 193.96 932.732 191.246V69.3166Z" fill="#1F1646"/>
<path d="M989.336 61.1658C989.336 70.2915 982.375 77.6684 973.85 77.6684C965.326 77.6684 958.365 70.2915 958.365 61.1658C958.365 52.0402 965.326 44.6633 973.85 44.6633C982.375 44.6633 989.336 52.0402 989.336 61.1658Z" fill="#8041F4"/>
<path fill-rule="evenodd" clip-rule="evenodd" d="M598.927 6.79397C598.927 5.14573 600.189 3.87939 601.831 3.87939H619.25C620.893 3.87939 622.155 5.14573 622.155 6.79397V193.186C622.155 194.834 620.893 196.1 619.25 196.1H601.831C600.189 196.1 598.927 194.834 598.927 193.186V176.392C588.86 190.663 574.546 199.015 552.189 199.015C510.389 199.015 485.718 164.07 485.718 121.548C485.718 79.0251 511.742 44.6633 552.189 44.6633C570.379 44.6633 586.826 52.9146 598.927 66.4121V6.79397ZM600.86 121.839C600.86 151.447 584.312 175.427 556.546 175.427C528.78 175.427 512.232 151.447 512.232 121.839C512.232 92.2312 529.261 68.2513 556.546 68.2513C583.832 68.2513 600.86 92.2312 600.86 121.839V121.839Z" fill="#1F1646"/>
<path fill-rule="evenodd" clip-rule="evenodd" d="M260.273 199.015C299.849 199.015 331.872 168.05 331.872 121.839C331.872 75.6282 299.849 44.6633 260.273 44.6633C220.697 44.6633 188.674 75.2463 188.674 121.839C188.674 168.432 220.697 199.015 260.273 199.015ZM260.273 177.367C285.425 177.367 305.749 155.618 305.749 121.839C305.749 88.0603 285.425 66.3116 260.273 66.3116C235.121 66.3116 214.797 86.9849 214.797 121.839C214.797 156.693 235.121 177.367 260.273 177.367Z" fill="#1F1646"/>
<path d="M149.008 6.79397C149.008 5.14573 150.27 3.87939 151.913 3.87939H170.293C171.936 3.87939 173.198 5.14573 173.198 6.79397V193.186C173.198 194.834 171.936 196.1 170.293 196.1H151.913C150.27 196.1 149.008 194.834 149.008 193.186V6.79397Z" fill="#1F1646"/>
<path d="M0 121.548C0 106.111 2.90483 92.6131 8.70448 81.1658C14.5141 69.5176 22.5375 60.4925 32.7946 54.1809C43.3421 47.8694 55.2419 44.6633 68.5941 44.6633C85.913 44.6633 100.137 49.1256 111.265 58.0603C121.422 66.0201 128.484 76.8945 132.36 90.392C133.041 92.8141 131.198 95.1457 128.684 95.1457H111.365C109.622 95.1457 108.08 93.9799 107.499 92.2312C104.885 84.4623 100.537 78.2513 94.2468 73.588C87.3754 68.3417 78.8612 65.7287 68.6041 65.7287C55.2519 65.7287 44.5141 70.6834 36.2904 80.4824C28.0667 90.0905 23.9999 103.879 23.9999 121.648C23.9999 139.417 28.0667 153.588 36.2904 163.397C44.5141 173.206 55.2519 178.151 68.6041 178.151C78.8612 178.151 87.4755 175.628 94.2468 170.482C100.437 165.92 104.794 159.608 107.499 151.548C108.08 149.9 109.532 148.734 111.275 148.734H128.494C131.008 148.734 132.851 151.065 132.07 153.487C128.003 166.593 120.941 177.276 110.784 185.528C99.4655 194.653 85.342 199.116 68.4038 199.116C55.0516 199.116 43.1518 195.91 32.7044 189.598C22.6377 183.095 14.5141 174.06 8.70448 162.513C2.90483 150.864 0 137.176 0 121.548Z" fill="#1F1646"/>
<path fill-rule="evenodd" clip-rule="evenodd" d="M848.552 121.638C848.552 148.915 832.976 167.166 809.367 167.166C785.757 167.166 770.182 149.015 770.182 121.638C770.182 94.2613 785.757 76.1105 809.367 76.1105C800.752 76.1105 793.691 69.0251 793.691 60.3819C793.691 51.7387 800.752 44.6533 809.367 44.6533C767.086 44.6533 736.315 77.2764 736.315 121.829C736.315 166.382 767.086 199.005 809.367 199.005C851.647 199.005 882.418 166.382 882.418 121.829L848.552 121.638V121.638Z" fill="#1F1646"/>
<path fill-rule="evenodd" clip-rule="evenodd" d="M882.418 121.839C882.418 77.2764 851.647 44.6633 809.367 44.6633C817.981 44.6633 825.043 51.7488 825.043 60.392C825.043 69.0352 818.081 76.1206 809.367 76.1206C832.976 76.1206 848.552 94.3719 848.552 121.648L882.418 121.839V121.839Z" fill="url(#paint2_linear_2058_5149)"/>
<path fill-rule="evenodd" clip-rule="evenodd" d="M809.367 76.1105C800.752 76.1105 793.691 69.0251 793.691 60.3819C793.691 51.7387 800.752 44.6533 809.367 44.6533" fill="#1F1646"/>
<path d="M825.043 60.3819C825.043 69.0251 817.981 76.1105 809.367 76.1105C800.752 76.1105 793.691 69.0251 793.691 60.3819C793.691 51.7387 800.752 44.6533 809.367 44.6533C817.981 44.6533 825.043 51.7387 825.043 60.3819V60.3819Z" fill="#8041F4"/>
<path fill-rule="evenodd" clip-rule="evenodd" d="M958.465 61.1658C958.465 52.2312 965.146 44.9548 973.56 44.6633H972.298C967.85 44.6633 963.593 45.3467 959.426 46.603C955.269 47.9598 951.393 49.8091 947.817 52.3317C944.241 54.6633 940.946 57.5779 938.141 61.0653C936.007 63.588 934.174 66.402 932.722 69.3166V119.699C932.722 113.869 933.303 108.533 934.465 103.588C935.627 98.6432 937.46 94.2714 940.174 90.6734C942.979 86.8844 946.565 83.8794 951.012 81.7387C955.46 79.598 959.917 77.5679 967.269 77.5679C968.912 77.5679 970.555 77.6684 972.298 77.6684C972.779 77.6684 973.269 77.6684 973.75 77.7689C965.236 77.5779 958.465 70.201 958.465 61.1658V61.1658Z" fill="url(#paint3_linear_2058_5149)"/>
<path fill-rule="evenodd" clip-rule="evenodd" d="M347.358 53.397C347.358 50.6834 349.491 48.5427 352.196 48.5427H365.738C368.443 48.5427 370.577 50.6834 370.577 53.397V147.075C370.577 159.407 373.772 164.844 379.191 170.372C384.61 175.809 393.024 177.558 402.51 177.558C410.052 177.558 416.543 176.392 421.962 174.06C427.571 171.729 432.219 168.432 435.895 164.06C439.571 159.789 442.286 154.744 444.019 149.106C445.661 143.96 446.633 138.523 446.924 132.704V53.397C446.924 50.6834 449.057 48.5427 451.762 48.5427H465.304C468.009 48.5427 470.142 50.6834 470.142 53.397V191.246C470.142 193.96 468.009 196.101 465.304 196.101H451.762C449.057 196.101 446.924 193.96 446.924 191.246V173.678C441.795 182.221 435.414 188.633 427.762 192.905C419.638 197.176 410.052 199.317 399.024 199.317C389.157 199.317 380.934 198.05 374.353 195.528C367.772 192.814 362.453 189.025 358.386 184.07C354.32 179.216 351.425 173.387 349.682 166.794C348.129 160 347.358 155.337 347.358 148.151V53.397Z" fill="#1F1646"/>
<path d="M1052.26 44.6533C1016.98 44.6533 987.964 70.4925 984.538 112.442C984.128 116 983.907 119.799 983.907 123.759C983.907 126 983.977 128.201 984.118 130.332H1017.67C1017.67 130.221 1017.67 130.1 1017.67 129.99H1110.18C1115.26 129.99 1119.37 125.859 1119.37 120.764V111.266C1117.46 70.1407 1094.6 44.6533 1052.26 44.6533V44.6533ZM1018.4 104.1C1021.99 85.3367 1036 72.4623 1052.73 72.4623C1069.46 72.4623 1085.57 82.4925 1087.34 104.1H1018.4Z" fill="#1F1646"/>
<path d="M984.127 130.332C984.258 132.382 984.448 134.382 984.698 136.291C988.785 172.362 1018.01 199.015 1053.33 199.015C1078.39 199.015 1096.39 190.362 1107.05 173.97C1109.18 171.598 1110.47 168.472 1110.47 165.035C1110.47 157.638 1104.49 151.638 1097.12 151.638C1093.55 151.638 1090.32 153.045 1087.93 155.327L1087.8 155.457C1087.75 155.508 1087.69 155.568 1087.63 155.618L1084.08 159.045C1077.07 166.543 1067.17 171.206 1056.2 171.206C1033.93 170.251 1021.49 157.437 1017.63 131.899C1017.63 131.367 1017.65 130.844 1017.67 130.322H984.117L984.127 130.332Z" fill="url(#paint4_linear_2058_5149)"/>
<path d="M1110.48 165.035C1110.48 172.432 1104.5 178.432 1097.13 178.432C1089.75 178.432 1083.77 172.432 1083.77 165.035C1083.77 157.638 1089.75 151.638 1097.13 151.638C1104.5 151.638 1110.48 157.638 1110.48 165.035Z" fill="#8041F4"/>
<defs>
<linearGradient id="paint0_linear_2058_5149" x1="1185.45" y1="206.693" x2="1142.42" y2="155.589" gradientUnits="userSpaceOnUse">
<stop offset="0.22" stop-color="#752DDA"/>
<stop offset="0.65" stop-color="#1D1843"/>
</linearGradient>
<linearGradient id="paint1_linear_2058_5149" x1="700.546" y1="62.1307" x2="742.395" y2="62.1307" gradientUnits="userSpaceOnUse">
<stop stop-color="#1D1843"/>
<stop offset="0.05" stop-color="#21194A"/>
<stop offset="0.13" stop-color="#2C1B5E"/>
<stop offset="0.22" stop-color="#3F207E"/>
<stop offset="0.32" stop-color="#5A26AB"/>
<stop offset="0.41" stop-color="#752DDA"/>
</linearGradient>
<linearGradient id="paint2_linear_2058_5149" x1="800.131" y1="70.1307" x2="889.43" y2="102.521" gradientUnits="userSpaceOnUse">
<stop offset="0.24" stop-color="#752DDA"/>
<stop offset="0.25" stop-color="#712CD3"/>
<stop offset="0.38" stop-color="#5324A0"/>
<stop offset="0.49" stop-color="#3B1F77"/>
<stop offset="0.6" stop-color="#2A1B5A"/>
<stop offset="0.69" stop-color="#201849"/>
<stop offset="0.75" stop-color="#1D1843"/>
</linearGradient>
<linearGradient id="paint3_linear_2058_5149" x1="922.585" y1="91.7186" x2="982.722" y2="69.8983" gradientUnits="userSpaceOnUse">
<stop offset="0.27" stop-color="#1D1843"/>
<stop offset="0.33" stop-color="#21194A"/>
<stop offset="0.41" stop-color="#2C1B5E"/>
<stop offset="0.51" stop-color="#3F207E"/>
<stop offset="0.62" stop-color="#5A26AB"/>
<stop offset="0.72" stop-color="#752DDA"/>
</linearGradient>
<linearGradient id="paint4_linear_2058_5149" x1="994.895" y1="174.05" x2="1103.73" y2="140.887" gradientUnits="userSpaceOnUse">
<stop offset="0.41" stop-color="#1D1843"/>
<stop offset="0.47" stop-color="#261A53"/>
<stop offset="0.58" stop-color="#3F207E"/>
<stop offset="0.74" stop-color="#6829C4"/>
<stop offset="0.78" stop-color="#752DDA"/>
</linearGradient>
</defs>
</svg>
